<svg data-v-0dd9719b="" version="1.0" xmlns="http://www.w3.org/2000/svg" xmlns:xlink="http://www.w3.org/1999/xlink" width="100%" height="100%" viewBox="0 0 340.000000 250.000000" preserveAspectRatio="xMidYMid meet" color-interpolation-filters="sRGB" style="margin: auto;">   <g data-v-0dd9719b="" class="iconmbgsvg" transform="translate(94.15999603271484,74.42911148071289)"><g fill="#333333" hollow-target="textNormalTran"><g opacity="0.55" transform="translate(19.590003967285156,0)"><g><rect fill="#333333" fill-opacity="0" stroke-width="2" x="0" y="0" width="112.5" height="101.14177829722196" class="image-rect"></rect> <svg x="0" y="0" width="112.5" height="101.14177829722196" filtersec="colorsb3906494955" class="image-svg-svg primary" style="overflow: visible;"><svg xmlns="http://www.w3.org/2000/svg" viewBox="-0.0012331008911132812 -0.0011873245239257812 120.43017578125 108.27119445800781"><title>资源 15</title><g><g><path d="M76.33 29.12c-20.53 23.61-15.22 12.32-32.27-1.8C28.29 12.5 15.6 32.84 28.11 46c-4.71 4.74-9.63 10.85-15.53 15-39.35-42.43 22.48-92.69 63.75-31.88z" fill="#999999"></path><path d="M107.93 60.49c-47.11 47.78-44.84 46.06-47.11 47.78 0 0-8.24-7.11-15.06-13.89C54.79 83 78.51 62 93.52 45.48c4.18 4.38 10.71 9.31 14.41 15.01z" fill="#0bbf64"></path><path d="M61.62 77.52C47.68 91.45 48.69 91.33 45.76 94.38 35 84.41 23.11 71.58 12.58 61c4.88-5.08 9.79-9.63 15-15.4 15.19 14.89 22.78 21.27 34.04 31.92z" fill="#999999"></path><path d="M76.33 29.12c-4.77-5.06-2.47-2.64-15.51-17.23C70.05.11 89.64-3.92 101.07 4.39 93.53 13 84.25 20.77 76.33 29.12zM107.93 60.49c-4.08-4.61-4.08-4.61-14.41-15l24.36-23.65c5.94 11.95 1.04 29.58-9.95 38.65z" fill="#0bbf64"></path></g></g></svg></svg> <!----></g></g> <g transform="translate(0,34.07088851928711)"><g data-gra="path-name" fill-rule="" class="tp-name"><g transform="scale(1)"><g><path d="M15.82 0.53L15.82 0.53Q9.67 0.53 5.94-4.06L5.94-4.06Q2.42-8.4 2.42-15.37L2.42-15.37Q2.42-23.49 7.09-27.92L7.09-27.92Q10.78-31.36 16.07-31.36L16.07-31.36Q20.74-31.36 24.15-27.96L24.15-27.96Q24.35-27.71 24.51-27.55L24.51-27.55 22.42-25.01Q19.64-27.92 16.11-27.96L16.11-27.96Q11.03-27.96 8.36-23.57L8.36-23.57Q6.44-20.29 6.44-15.5L6.44-15.5Q6.44-8.16 10.37-4.84L10.37-4.84Q12.75-2.87 15.99-2.87L15.99-2.87Q19.96-2.91 23.12-6.31L23.12-6.31 25.25-3.85Q21.48 0.53 15.82 0.53ZM39.8 0.53L39.8 0.53Q34.68 0.53 31.61-3.16L31.61-3.16Q28.9-6.44 28.9-11.4L28.9-11.4Q28.9-17.3 32.67-20.74L32.67-20.74Q35.54-23.37 39.19-23.37L39.19-23.37Q44.72-23.37 47.02-18.73L47.02-18.73Q48.25-16.15 48.25-12.67L48.25-12.67Q48.25-11.56 48.09-10.49L48.09-10.49 32.71-10.49Q32.96-5.74 36.24-3.65L36.24-3.65Q38-2.5 40.3-2.5L40.3-2.5Q43.37-2.54 46-4.3L46-4.3 47.39-1.8Q43.78 0.53 39.8 0.53ZM32.67-13.24L32.67-13.24 44.89-13.24Q44.89-18.94 41.03-20.09L41.03-20.09Q40.17-20.33 39.23-20.33L39.23-20.33Q35.99-20.33 34.11-17.46L34.11-17.46Q32.92-15.66 32.67-13.24ZM57.68 0L53.87 0 53.87-22.79 57.02-22.79 57.35-18.65 57.47-18.65Q59.73-22.71 63.05-23.28L63.05-23.28Q63.5-23.37 63.95-23.37L63.95-23.37Q65.47-23.37 66.37-22.87L66.37-22.87 65.67-19.51Q64.69-19.88 63.46-19.88L63.46-19.88Q60.67-19.88 58.66-16.64L58.66-16.64Q58.13-15.74 57.68-14.63L57.68-14.63 57.68 0ZM79.53 0L75.06 0 66.82-22.79 70.84-22.79 75.1-9.84Q76.82-4.35 77.23-3.12L77.23-3.12 77.4-3.12Q77.68-4.02 78.3-5.99L78.3-5.99Q79.16-8.61 79.53-9.84L79.53-9.84 83.83-22.79 87.6-22.79 79.53 0ZM95.8 0L91.99 0 91.99-22.79 95.8-22.79 95.8 0ZM93.92-27.51L93.92-27.51Q92.11-27.51 91.5-28.98L91.5-28.98Q91.29-29.47 91.29-29.97L91.29-29.97Q91.29-31.81 92.97-32.34L92.97-32.34Q93.47-32.47 93.92-32.47L93.92-32.47Q95.8-32.47 96.42-30.95L96.42-30.95Q96.58-30.46 96.58-29.97L96.58-29.97Q96.58-28.33 95.02-27.71L95.02-27.71Q94.49-27.51 93.92-27.51ZM104.33 0L100.27 0 107.81-11.89 100.89-22.79 104.99-22.79 108.06-17.75Q108.47-17.01 109.37-15.58L109.37-15.58Q110.03-14.51 110.31-13.98L110.31-13.98 110.48-13.98Q112.24-17.22 112.53-17.75L112.53-17.75 115.36-22.79 119.33-22.79 112.4-11.52 119.95 0 115.73 0 112.36-5.33Q111.67-6.6 109.95-9.39L109.95-9.39 109.74-9.39Q107.85-6.23 107.36-5.33L107.36-5.33 104.33 0ZM130.03-17.22L128.56-12.5 137.86-12.5 136.39-17.22Q135.4-20.21 133.27-27.63L133.27-27.63 133.11-27.63Q131.67-22.42 130.03-17.22L130.03-17.22ZM145.86 0L141.76 0 138.8-9.39 127.57-9.39 124.58 0 120.64 0 131.1-30.79 135.44-30.79 145.86 0ZM154.1 0L150.16 0 150.16-30.79 154.1-30.79 154.1 0Z" transform="translate(-2.4200000762939453, 32.470001220703125)"></path></g> <!----> <!----> <!----> <!----> <!----> <!----> <!----></g></g> <!----></g></g></g><defs v-gra="od"></defs></svg>