<?xml version="1.0" standalone="no"?><!DOCTYPE svg PUBLIC "-//W3C//DTD SVG 1.1//EN" "http://www.w3.org/Graphics/SVG/1.1/DTD/svg11.dtd"><svg height="44" node-id="1" sillyvg="true" template-height="44" template-width="44" version="1.1" viewBox="0 0 44 44" width="44" xmlns="http://www.w3.org/2000/svg" xmlns:xlink="http://www.w3.org/1999/xlink"><defs node-id="26"><linearGradient gradientUnits="objectBoundingBox" id="linearGradient-1" node-id="5" spreadMethod="pad" x1="0.04814482" x2="0.9201871" y1="0.052320685" y2="1"><stop offset="0" stop-color="#ffc84b" stop-opacity="0.89769995"></stop><stop offset="1" stop-color="#ffa900" stop-opacity="0.5663516"></stop></linearGradient><linearGradient gradientUnits="objectBoundingBox" id="linearGradient-4" node-id="9" spreadMethod="pad" x1="0.005291013" x2="0.9096981" y1="0.414226" y2="0.8761823"><stop offset="0" stop-color="#76ef6b" stop-opacity="0.7529412"></stop><stop offset="1" stop-color="#78ed45" stop-opacity="0.91764706"></stop></linearGradient><linearGradient gradientUnits="objectBoundingBox" id="linearGradient-5" node-id="12" spreadMethod="pad" x1="0.18994801" x2="0.75677264" y1="0.414226" y2="0.8761823"><stop offset="0" stop-color="#4fff00" stop-opacity="0.7529412"></stop><stop offset="1" stop-color="#56b146" stop-opacity="0.91764706"></stop></linearGradient><clipPath id="mask-3_4" node-id="19"><path d="M 7.00 9.00 L 37.00 9.00 L 37.00 35.00 L 7.00 35.00 Z" fill="#000000" fill-rule="evenodd" node-id="49" stroke="none" target-height="26" target-width="30" target-x="7" target-y="9"></path></clipPath><clipPath id="mask-3_3" node-id="19"><path d="M 7.00 9.00 L 37.00 9.00 L 37.00 35.00 L 7.00 35.00 Z" fill="#000000" fill-rule="evenodd" node-id="49" stroke="none" target-height="26" target-width="30" target-x="7" target-y="9"></path></clipPath><clipPath id="mask-3" node-id="19"><path d="M 0.00 0.00 L 30.00 0.00 L 30.00 26.00 L 0.00 26.00 Z" fill="#000000" fill-rule="evenodd" node-id="49" stroke="none" target-height="26" target-width="30" target-x="0" target-y="0"></path></clipPath></defs><g node-id="65"><path d="M 4.00 0.00 L 40.00 0.00 C 42.21 0.00 44.00 1.79 44.00 4.00 L 44.00 40.00 C 44.00 42.21 42.21 44.00 40.00 44.00 L 4.00 44.00 C 1.79 44.00 0.00 42.21 0.00 40.00 L 0.00 4.00 C 0.00 1.79 1.79 0.00 4.00 0.00 Z" fill="url(#linearGradient-1)" fill-rule="evenodd" group-id="1" hidden="true" id="矩形" node-id="17" stroke="none" target-height="44" target-width="44" target-x="0" target-y="0" visibility="hidden"></path><g node-id="66"><g node-id="68"><g clip-path="url(#mask-3_3)" group-id="1,2,4" node-id="59"><path d="M 36.64 9.70 L 30.80 9.70 L 30.08 9.85 L 29.51 10.24 L 29.13 10.82 L 28.98 11.53 L 28.98 32.38 L 29.13 33.11 L 29.52 33.69 L 30.09 34.07 L 30.80 34.22 L 36.64 34.22 L 36.89 34.11 L 37.00 33.85 L 37.00 32.32 L 36.89 32.06 L 36.64 31.95 L 32.65 31.95 L 32.44 31.86 L 32.35 31.65 L 32.35 30.71 L 32.44 30.50 L 32.65 30.41 L 36.60 30.41 L 36.87 30.30 L 37.00 30.01 L 37.00 29.25 L 36.89 28.97 L 36.60 28.85 L 32.65 28.85 L 32.44 28.76 L 32.35 28.55 L 32.35 27.64 L 32.44 27.43 L 32.65 27.34 L 36.60 27.34 L 36.89 27.23 L 37.00 26.94 L 37.00 26.18 L 36.89 25.90 L 36.60 25.78 L 32.65 25.78 L 32.44 25.69 L 32.35 25.48 L 32.35 24.54 L 32.44 24.33 L 32.65 24.24 L 36.60 24.24 L 36.87 24.13 L 37.00 23.84 L 37.00 23.07 L 36.89 22.80 L 36.60 22.67 L 32.65 22.67 L 32.44 22.59 L 32.35 22.37 L 32.35 21.44 L 32.44 21.23 L 32.65 21.14 L 36.60 21.14 L 36.87 21.03 L 37.00 20.74 L 37.00 19.97 L 36.89 19.70 L 36.60 19.57 L 32.65 19.57 L 32.44 19.48 L 32.35 19.27 L 32.35 18.30 L 32.44 18.09 L 32.65 18.00 L 36.60 18.00 L 36.87 17.89 L 37.00 17.60 L 37.00 16.84 L 36.89 16.56 L 36.60 16.44 L 32.65 16.44 L 32.44 16.35 L 32.35 16.14 L 32.35 15.17 L 32.44 14.95 L 32.65 14.87 L 36.60 14.87 L 36.87 14.76 L 37.00 14.47 L 37.00 13.70 L 36.89 13.43 L 36.60 13.30 L 32.65 13.30 L 32.44 13.21 L 32.35 13.00 L 32.35 12.03 L 32.44 11.82 L 32.65 11.73 L 36.64 11.73 L 36.89 11.62 L 37.00 11.36 L 37.00 10.03 L 36.90 9.80 L 36.64 9.70 Z M 11.93 9.13 L 11.28 10.92 L 11.05 12.20 L 11.02 13.78 L 11.32 15.40 L 12.09 17.17 L 15.10 22.27 L 17.87 18.60 L 12.29 9.10 L 12.10 9.00 L 11.93 9.13 Z M 23.28 27.81 L 21.20 24.31 L 20.74 24.94 L 20.04 25.72 L 19.25 26.34 L 20.45 26.85 L 21.33 27.81 L 21.83 28.68 L 21.08 29.66 L 20.70 30.81 L 20.72 32.02 L 21.17 33.22 L 22.11 34.28 L 23.38 34.89 L 24.79 34.96 L 26.11 34.48 L 27.16 33.53 L 27.77 32.24 L 27.84 30.82 L 27.37 29.48 L 26.59 28.51 L 25.59 27.91 L 24.46 27.66 L 23.28 27.81 Z M 25.22 32.88 L 24.54 33.12 L 23.85 33.08 L 23.23 32.79 L 22.75 32.25 L 22.52 31.56 L 22.56 30.86 L 22.84 30.23 L 23.38 29.75 L 24.06 29.51 L 24.75 29.55 L 25.37 29.84 L 25.85 30.38 L 26.08 31.07 L 26.04 31.76 L 25.76 32.38 L 25.22 32.88 Z" fill="url(#linearGradient-4)" fill-opacity="0.83265907" fill-rule="evenodd" group-id="1,2,4" id="Fill-1" node-id="22" stroke="none" target-height="25.961252" target-width="25.97544" target-x="11.024561" target-y="9.000402"></path></g></g><g clip-path="url(#mask-3_4)" group-id="1,2,5" node-id="63"><path d="M 19.54 24.28 L 20.24 23.40 L 24.40 17.97 L 25.37 16.33 L 25.84 14.79 L 26.00 13.25 L 25.92 11.97 L 25.49 10.15 L 25.32 10.00 L 25.13 10.08 L 17.89 19.48 L 15.11 23.10 L 12.04 27.11 L 10.88 26.83 L 9.72 26.93 L 8.64 27.39 L 7.74 28.23 L 7.11 29.52 L 7.03 30.88 L 7.48 32.17 L 8.44 33.26 L 9.74 33.89 L 11.11 33.97 L 12.42 33.53 L 13.49 32.60 L 14.07 31.51 L 14.23 30.33 L 14.00 29.16 L 13.36 28.10 L 13.96 27.31 L 14.99 26.47 L 16.30 26.13 L 16.76 26.06 L 17.53 25.83 L 18.65 25.19 L 19.54 24.28 Z M 12.07 31.52 L 11.53 31.99 L 10.87 32.20 L 10.18 32.16 L 9.53 31.85 L 9.06 31.32 L 8.83 30.65 L 8.88 29.95 L 9.20 29.31 L 9.74 28.84 L 10.39 28.62 L 11.09 28.66 L 11.74 28.99 L 12.20 29.52 L 12.41 30.18 L 12.38 30.87 L 12.07 31.52 Z M 18.19 23.53 L 17.50 23.64 L 16.93 23.20 L 16.84 22.51 L 17.26 21.95 L 17.95 21.86 L 18.52 22.28 L 18.60 22.99 L 18.19 23.53 Z" fill="url(#linearGradient-5)" fill-opacity="0.83265907" fill-rule="evenodd" group-id="1,2,5" id="Fill-3" node-id="23" stroke="none" target-height="23.964504" target-width="18.965366" target-x="7.0348177" target-y="10.002696"></path></g></g><path d="M 40.95 34.00 C 40.95 34.58 41.18 35.13 41.60 35.53 C 42.00 35.92 42.11 36.52 41.89 37.03 C 41.59 37.71 41.19 38.35 40.71 38.92 C 40.35 39.34 39.79 39.52 39.25 39.40 C 38.65 39.28 38.02 39.36 37.47 39.65 C 36.94 39.93 36.54 40.40 36.34 40.96 C 36.17 41.49 35.70 41.86 35.15 41.92 C 34.38 42.03 33.60 42.03 32.83 41.92 C 32.28 41.86 31.81 41.48 31.64 40.96 C 31.45 40.40 31.05 39.93 30.53 39.65 C 29.98 39.36 29.35 39.28 28.74 39.40 C 28.21 39.52 27.65 39.34 27.29 38.92 C 26.81 38.35 26.42 37.71 26.11 37.03 C 25.89 36.52 26.00 35.92 26.40 35.53 C 26.81 35.13 27.05 34.58 27.05 34.00 C 27.05 33.42 26.81 32.86 26.40 32.45 C 26.00 32.07 25.89 31.48 26.11 30.97 C 26.41 30.29 26.81 29.65 27.28 29.08 C 27.64 28.66 28.20 28.47 28.74 28.60 C 29.35 28.72 29.98 28.63 30.53 28.33 C 31.05 28.06 31.45 27.60 31.64 27.04 C 31.81 26.51 32.28 26.13 32.83 26.08 C 33.60 25.97 34.39 25.97 35.16 26.08 C 35.71 26.14 36.17 26.52 36.34 27.04 C 36.53 27.60 36.94 28.06 37.47 28.33 C 38.01 28.63 38.64 28.72 39.25 28.60 C 39.78 28.48 40.34 28.67 40.70 29.08 C 41.18 29.65 41.58 30.29 41.89 30.97 C 42.11 31.48 42.00 32.07 41.60 32.45 C 41.18 32.86 40.95 33.42 40.95 34.00 Z M 33.99 29.99 C 32.37 29.98 30.90 30.96 30.28 32.46 C 29.66 33.96 30.00 35.69 31.15 36.84 C 32.30 37.98 34.02 38.33 35.52 37.71 C 37.02 37.09 38.00 35.62 38.00 34.00 C 38.00 32.94 37.58 31.92 36.83 31.16 C 36.08 30.41 35.06 29.99 33.99 29.99 Z M 35.01 36.48 C 34.02 36.89 32.87 36.67 32.12 35.91 C 31.36 35.14 31.13 33.99 31.54 32.99 C 32.01 31.88 33.16 31.23 34.35 31.39 C 35.54 31.55 36.47 32.49 36.63 33.68 C 36.78 34.87 36.12 36.02 35.01 36.48 Z" fill="#ffffff" fill-opacity="0.72869474" fill-rule="evenodd" group-id="1,3" hidden="true" id="Fill-3" node-id="24" stroke="none" target-height="16.053293" target-width="16.222927" target-x="25.888443" target-y="25.973322" visibility="hidden"></path></g></svg>