<?xml version="1.0" standalone="no"?><!DOCTYPE svg PUBLIC "-//W3C//DTD SVG 1.1//EN" "http://www.w3.org/Graphics/SVG/1.1/DTD/svg11.dtd"><svg height="251" node-id="1" sillyvg="true" template-height="251" template-width="256" version="1.1" viewBox="0 0 256 251" width="256" xmlns="http://www.w3.org/2000/svg" xmlns:xlink="http://www.w3.org/1999/xlink"><defs node-id="359"></defs><g node-id="570"><path d="M 245.33 118.57 C 245.33 153.01 215.46 170.27 182.06 209.69 C 170.40 223.46 146.27 222.53 127.48 222.53 C 77.38 222.53 41.48 197.34 41.48 142.23 C 41.48 87.13 130.31 -4.34 171.58 24.07 C 195.27 40.37 245.33 34.88 245.33 118.57 Z" fill="#e6e3f7" fill-rule="nonzero" group-id="1" node-id="362" stroke="none" target-height="227.801" target-width="203.849" target-x="41.484" target-y="-4.344"></path><path d="M 245.70 110.86 C 245.70 68.17 219.80 37.77 178.98 37.77 C 178.34 37.77 177.72 37.80 177.09 37.82 C 164.20 15.18 140.57 0.00 113.54 0.00 C 72.72 0.00 39.63 34.60 39.63 77.28 C 39.63 77.83 39.66 78.38 39.67 78.93 C 17.34 92.23 8.28 113.32 8.28 142.10 C 8.28 184.78 42.26 201.07 83.08 223.03 C 85.12 224.13 80.81 223.25 83.08 223.03 C 96.64 228.00 107.80 240.80 130.76 240.80 C 168.49 240.80 188.63 208.21 213.44 183.41 C 236.90 170.47 245.70 140.52 245.70 110.86 Z" fill="#e6e3f7" fill-rule="nonzero" group-id="1" node-id="364" stroke="none" target-height="240.803" target-width="237.427" target-x="8.277" target-y="0"></path><g node-id="572"><path d="M 90.97 55.98 C 90.97 72.23 77.79 85.40 61.54 85.40 C 45.29 85.40 32.11 72.23 32.11 55.98 C 32.11 39.73 45.29 26.55 61.54 26.55 C 77.79 26.55 90.97 39.73 90.97 55.98 Z" fill="#f0f0ff" fill-rule="nonzero" group-id="1,3" node-id="368" stroke="none" target-height="58.851997" target-width="58.851997" target-x="32.113" target-y="26.552"></path><g node-id="583"><path d="M 115.46 59.74 L 115.46 50.03 L 102.65 47.59 C 102.22 45.04 101.55 42.58 100.68 40.21 L 110.76 32.06 L 105.90 23.66 L 93.59 27.95 C 91.95 25.99 90.15 24.18 88.19 22.55 L 92.85 10.44 L 84.44 5.58 L 75.92 15.45 C 73.56 14.58 71.10 13.92 68.55 13.48 L 66.53 0.66 L 56.83 0.66 L 54.38 13.48 C 51.84 13.91 49.37 14.58 47.00 15.45 L 38.86 5.36 L 30.45 10.22 L 34.74 22.54 C 32.78 24.17 30.98 25.98 29.34 27.93 L 17.23 23.27 L 12.38 31.68 L 22.25 40.20 C 21.38 42.57 20.72 45.03 20.28 47.58 L 7.46 49.59 L 7.46 59.31 L 20.27 61.75 C 20.71 64.30 21.37 66.76 22.25 69.12 L 12.16 77.27 L 17.02 85.69 L 29.34 81.39 C 30.97 83.35 32.77 85.16 34.73 86.79 L 30.06 98.90 L 38.48 103.75 L 47.00 93.88 C 49.35 94.75 51.82 95.42 54.37 95.86 L 56.39 108.67 L 66.09 108.67 L 68.54 95.86 C 71.08 95.42 73.55 94.76 75.92 93.89 L 84.06 103.97 L 92.47 99.11 L 88.18 86.79 C 90.14 85.16 91.94 83.36 93.57 81.40 L 105.68 86.06 L 110.54 77.65 L 100.67 69.13 C 101.54 66.77 102.20 64.31 102.64 61.76 L 115.46 59.74 Z M 61.37 83.22 C 45.68 83.22 32.96 70.50 32.96 54.81 C 32.96 39.12 45.68 26.40 61.37 26.40 C 77.05 26.40 89.77 39.12 89.77 54.81 C 89.78 70.50 77.06 83.22 61.37 83.22 Z" fill="#ffffff" fill-rule="nonzero" group-id="1,3,14" node-id="372" stroke="none" target-height="108.005" target-width="107.999" target-x="7.461" target-y="0.664"></path><path d="M 67.34 110.17 L 55.10 110.17 L 53.05 97.14 C 51.15 96.76 49.28 96.26 47.46 95.64 L 38.80 105.67 L 28.20 99.56 L 32.95 87.24 C 31.50 85.97 30.13 84.59 28.86 83.15 L 16.34 87.51 L 10.22 76.91 L 20.48 68.62 C 19.85 66.79 19.35 64.92 18.98 63.03 L 5.96 60.55 L 5.96 48.31 L 19.00 46.26 C 19.37 44.36 19.87 42.48 20.49 40.67 L 10.46 32.01 L 16.58 21.41 L 28.89 26.15 C 30.17 24.70 31.54 23.33 32.98 22.07 L 28.63 9.54 L 39.22 3.42 L 47.50 13.68 C 49.33 13.06 51.20 12.56 53.10 12.19 L 55.58 -0.84 L 67.81 -0.84 L 69.86 12.20 C 71.77 12.57 73.64 13.07 75.46 13.69 L 84.12 3.66 L 94.71 9.78 L 89.97 22.10 C 91.42 23.37 92.79 24.74 94.06 26.19 L 106.58 21.83 L 112.70 32.42 L 102.44 40.71 C 103.07 42.55 103.57 44.42 103.94 46.30 L 116.96 48.79 L 116.96 61.02 L 103.92 63.08 C 103.55 64.97 103.05 66.85 102.42 68.67 L 112.46 77.33 L 106.34 87.92 L 94.03 83.18 C 92.75 84.64 91.38 86.00 89.93 87.27 L 94.29 99.79 L 83.70 105.91 L 75.42 95.66 C 73.59 96.27 71.72 96.77 69.82 97.15 L 67.34 110.17 Z M 57.67 107.17 L 64.85 107.17 L 67.26 94.56 L 68.29 94.38 C 70.71 93.96 73.11 93.32 75.40 92.48 L 76.41 92.11 L 84.42 102.03 L 90.64 98.44 L 86.42 86.30 L 87.22 85.64 C 89.10 84.08 90.85 82.33 92.42 80.44 L 93.11 79.61 L 105.02 84.20 L 108.62 77.97 L 98.90 69.59 L 99.26 68.61 C 100.10 66.32 100.74 63.93 101.16 61.50 L 101.34 60.44 L 113.96 58.46 L 113.96 51.27 L 101.34 48.86 L 101.16 47.84 C 100.76 45.44 100.12 43.04 99.27 40.73 L 98.90 39.72 L 108.82 31.70 L 105.22 25.48 L 93.10 29.70 L 92.43 28.90 C 90.86 27.02 89.11 25.27 87.23 23.70 L 86.41 23.01 L 90.99 11.10 L 84.76 7.50 L 76.38 17.21 L 75.40 16.86 C 73.12 16.01 70.73 15.38 68.29 14.96 L 67.23 14.77 L 65.25 2.16 L 58.06 2.16 L 55.66 14.78 L 54.63 14.96 C 52.22 15.37 49.82 16.01 47.52 16.86 L 46.51 17.23 L 38.50 7.30 L 32.28 10.90 L 36.49 23.03 L 35.70 23.69 C 33.82 25.26 32.07 27.01 30.50 28.89 L 29.81 29.72 L 17.89 25.13 L 14.30 31.36 L 24.02 39.75 L 23.66 40.72 C 22.81 43.01 22.18 45.40 21.76 47.83 L 21.58 48.89 L 8.96 50.87 L 8.96 58.06 L 21.58 60.47 L 21.75 61.49 C 22.16 63.91 22.80 66.30 23.65 68.60 L 24.02 69.61 L 14.10 77.63 L 17.70 83.86 L 29.82 79.63 L 30.49 80.43 C 32.06 82.31 33.81 84.06 35.69 85.63 L 36.52 86.32 L 31.92 98.24 L 38.15 101.83 L 46.54 92.11 L 47.52 92.47 C 49.80 93.32 52.19 93.96 54.62 94.38 L 55.68 94.56 L 57.67 107.17 Z M 61.37 84.72 C 44.88 84.72 31.46 71.30 31.46 54.81 C 31.46 38.32 44.88 24.90 61.37 24.90 C 77.86 24.90 91.27 38.32 91.27 54.81 C 91.27 62.80 88.16 70.31 82.51 75.96 C 76.86 81.61 69.36 84.72 61.37 84.72 Z M 61.37 27.90 C 46.53 27.90 34.46 39.97 34.46 54.81 C 34.46 69.65 46.53 81.72 61.37 81.72 C 68.55 81.72 75.31 78.92 80.39 73.84 C 85.47 68.75 88.27 62.00 88.27 54.81 C 88.27 39.97 76.20 27.90 61.37 27.90 Z" fill="#ccccde" fill-rule="nonzero" group-id="1,3,14" node-id="374" stroke="none" target-height="111.005" target-width="110.999" target-x="5.961" target-y="-0.836"></path></g><g node-id="584"><path d="M 74.27 54.67 C 74.27 61.74 68.53 67.47 61.46 67.47 C 54.39 67.47 48.66 61.74 48.66 54.67 C 48.66 47.59 54.39 41.86 61.46 41.86 C 68.53 41.86 74.27 47.59 74.27 54.67 Z" fill="#dbdbed" fill-rule="nonzero" group-id="1,3,15" node-id="379" stroke="none" target-height="25.61" target-width="25.61" target-x="48.655" target-y="41.862"></path><path d="M 61.46 68.97 C 53.57 68.97 47.15 62.55 47.15 54.67 C 47.15 46.78 53.57 40.36 61.46 40.36 C 69.35 40.36 75.77 46.78 75.77 54.67 C 75.77 62.55 69.35 68.97 61.46 68.97 Z M 61.46 43.36 C 55.23 43.36 50.15 48.43 50.15 54.67 C 50.15 60.90 55.23 65.97 61.46 65.97 C 67.69 65.97 72.77 60.90 72.77 54.67 C 72.77 48.43 67.69 43.36 61.46 43.36 Z" fill="#ccccde" fill-rule="nonzero" group-id="1,3,15" node-id="381" stroke="none" target-height="28.611" target-width="28.611" target-x="47.154" target-y="40.361"></path></g></g><g node-id="573"><path d="M 234.78 105.20 C 234.78 118.00 224.40 128.38 211.60 128.38 C 198.80 128.38 188.42 118.00 188.42 105.20 C 188.42 92.40 198.80 82.03 211.60 82.03 C 224.40 82.03 234.78 92.40 234.78 105.20 Z" fill="#f0f0ff" fill-opacity="0.67" fill-rule="nonzero" group-id="1,4" node-id="387" stroke="none" target-height="46.356003" target-width="46.356003" target-x="188.424" target-y="82.026"></path><g node-id="585"><path d="M 254.08 108.17 L 254.08 100.52 L 243.98 98.60 C 243.64 96.59 243.12 94.65 242.43 92.79 L 250.37 86.37 L 246.54 79.74 L 236.84 83.12 C 235.56 81.58 234.13 80.16 232.60 78.87 L 236.26 69.33 L 229.64 65.51 L 222.93 73.28 C 221.07 72.59 219.13 72.07 217.12 71.73 L 215.53 61.63 L 207.89 61.63 L 205.96 71.73 C 203.96 72.07 202.01 72.59 200.15 73.28 L 193.73 65.34 L 187.11 69.16 L 190.49 78.87 C 188.94 80.15 187.52 81.57 186.25 83.11 L 176.70 79.44 L 172.88 86.07 L 180.65 92.78 C 179.96 94.64 179.44 96.58 179.10 98.59 L 169.00 100.17 L 169.00 107.82 L 179.10 109.75 C 179.44 111.75 179.96 113.69 180.65 115.56 L 172.71 121.98 L 176.53 128.61 L 186.24 125.22 C 187.52 126.77 188.94 128.19 190.48 129.47 L 186.81 139.01 L 193.43 142.83 L 200.14 135.06 C 202.00 135.74 203.95 136.27 205.95 136.61 L 207.55 146.71 L 215.19 146.71 L 217.12 136.62 C 219.13 136.27 221.06 135.75 222.93 135.06 L 229.35 143.00 L 235.97 139.18 L 232.59 129.48 C 234.14 128.19 235.56 126.77 236.84 125.23 L 246.38 128.90 L 250.21 122.28 L 242.43 115.56 C 243.12 113.70 243.64 111.76 243.99 109.75 L 254.08 108.17 Z M 211.47 126.66 C 199.11 126.66 189.09 116.64 189.09 104.28 C 189.09 91.92 199.11 81.91 211.47 81.91 C 223.83 81.91 233.84 91.92 233.84 104.28 C 233.84 116.64 223.83 126.66 211.47 126.66 Z" fill="#ffffff" fill-opacity="0.67" fill-rule="nonzero" group-id="1,4,16" node-id="391" stroke="none" target-height="85.076996" target-width="85.074005" target-x="169.002" target-y="61.631"></path><path d="M 216.43 148.21 L 206.27 148.21 L 204.64 137.89 C 203.28 137.61 201.93 137.25 200.61 136.81 L 193.76 144.75 L 184.95 139.67 L 188.70 129.92 C 187.66 129.00 186.68 128.01 185.76 126.98 L 175.86 130.43 L 170.77 121.62 L 178.88 115.06 C 178.44 113.74 178.08 112.39 177.81 111.03 L 167.50 109.07 L 167.50 98.89 L 177.82 97.27 C 178.10 95.91 178.46 94.56 178.90 93.25 L 170.96 86.39 L 176.04 77.58 L 185.79 81.33 C 186.71 80.30 187.70 79.32 188.74 78.39 L 185.28 68.48 L 194.09 63.40 L 200.65 71.52 C 201.97 71.08 203.32 70.72 204.68 70.44 L 206.65 60.13 L 216.82 60.13 L 218.44 70.45 C 219.81 70.73 221.16 71.09 222.47 71.53 L 229.32 63.59 L 238.12 68.67 L 234.38 78.43 C 235.41 79.35 236.40 80.33 237.31 81.37 L 247.22 77.92 L 252.31 86.73 L 244.20 93.29 C 244.64 94.61 245.00 95.95 245.27 97.32 L 255.58 99.28 L 255.58 109.45 L 245.27 111.07 C 244.99 112.43 244.62 113.78 244.19 115.10 L 252.13 121.95 L 247.04 130.76 L 237.29 127.01 C 236.37 128.05 235.38 129.03 234.35 129.95 L 237.80 139.86 L 228.99 144.94 L 222.43 136.83 C 221.12 137.26 219.77 137.62 218.40 137.90 L 216.43 148.21 Z M 208.83 145.21 L 213.95 145.21 L 215.84 135.31 L 216.87 135.14 C 218.77 134.81 220.64 134.31 222.41 133.65 L 223.42 133.28 L 229.71 141.06 L 234.15 138.50 L 230.84 128.99 L 231.63 128.32 C 233.10 127.10 234.46 125.74 235.69 124.27 L 236.38 123.44 L 245.72 127.04 L 248.29 122.60 L 240.67 116.02 L 241.02 115.05 C 241.68 113.25 242.18 111.38 242.51 109.50 L 242.69 108.44 L 252.58 106.89 L 252.58 101.76 L 242.68 99.88 L 242.50 98.85 C 242.19 96.96 241.69 95.10 241.02 93.31 L 240.65 92.30 L 248.43 86.00 L 245.87 81.57 L 236.36 84.88 L 235.69 84.08 C 234.47 82.61 233.10 81.25 231.63 80.02 L 230.81 79.33 L 234.40 69.99 L 229.97 67.43 L 223.39 75.05 L 222.41 74.69 C 220.65 74.03 218.78 73.53 216.87 73.20 L 215.81 73.02 L 214.25 63.13 L 209.13 63.13 L 207.24 73.03 L 206.21 73.20 C 204.32 73.53 202.46 74.03 200.66 74.69 L 199.66 75.06 L 193.37 67.28 L 188.93 69.84 L 192.25 79.35 L 191.45 80.02 C 189.97 81.25 188.61 82.61 187.40 84.07 L 186.71 84.90 L 177.36 81.30 L 174.79 85.74 L 182.41 92.32 L 182.06 93.30 C 181.40 95.09 180.90 96.95 180.57 98.84 L 180.39 99.90 L 170.50 101.45 L 170.50 106.58 L 180.40 108.47 L 180.57 109.50 C 180.89 111.37 181.39 113.23 182.05 115.04 L 182.42 116.05 L 174.65 122.34 L 177.21 126.78 L 186.72 123.46 L 187.38 124.26 C 188.60 125.72 189.97 127.09 191.44 128.32 L 192.26 129.01 L 188.66 138.35 L 193.11 140.91 L 199.68 133.29 L 200.66 133.65 C 202.46 134.31 204.32 134.81 206.20 135.13 L 207.26 135.32 L 208.83 145.21 Z M 211.47 128.16 C 198.30 128.16 187.59 117.45 187.59 104.28 C 187.59 91.12 198.30 80.41 211.47 80.41 C 224.63 80.41 235.34 91.12 235.34 104.28 C 235.34 117.45 224.63 128.16 211.47 128.16 Z M 211.47 83.41 C 199.96 83.41 190.59 92.77 190.59 104.28 C 190.59 115.80 199.96 125.16 211.47 125.16 C 222.98 125.16 232.34 115.80 232.34 104.28 C 232.34 92.77 222.98 83.41 211.47 83.41 Z" fill="#ccccde" fill-opacity="0.67" fill-rule="nonzero" group-id="1,4,16" node-id="393" stroke="none" target-height="88.07599" target-width="88.073" target-x="167.504" target-y="60.132"></path></g><g node-id="586"><path d="M 211.54 94.09 C 217.11 94.09 221.63 98.61 221.63 104.17 C 221.63 109.74 217.11 114.26 211.54 114.26 C 205.97 114.26 201.46 109.74 201.46 104.17 C 201.46 98.60 205.97 94.09 211.54 94.09 Z" fill="#dbdbed" fill-opacity="0.67" fill-rule="nonzero" group-id="1,4,17" node-id="398" stroke="none" target-height="20.172005" target-width="20.170013" target-x="201.456" target-y="94.086"></path><path d="M 211.54 115.76 C 205.15 115.76 199.96 110.56 199.96 104.17 C 199.96 97.78 205.15 92.59 211.54 92.59 C 217.93 92.59 223.13 97.78 223.13 104.17 C 223.13 110.56 217.93 115.76 211.54 115.76 Z M 211.54 95.59 C 206.81 95.59 202.96 99.44 202.96 104.17 C 202.96 108.91 206.81 112.76 211.54 112.76 C 216.28 112.76 220.13 108.91 220.13 104.17 C 220.13 99.44 216.28 95.59 211.54 95.59 Z" fill="#ccccde" fill-opacity="0.67" fill-rule="nonzero" group-id="1,4,17" node-id="400" stroke="none" target-height="23.172005" target-width="23.170013" target-x="199.956" target-y="92.586"></path></g></g><g node-id="574"><path d="M 92.13 192.17 C 102.27 190.90 111.52 198.08 112.80 208.22 C 114.07 218.36 106.89 227.61 96.75 228.89 C 86.61 230.16 77.36 222.98 76.09 212.84 C 74.81 202.70 81.99 193.45 92.13 192.17 Z" fill="#f0f0ff" fill-opacity="0.69" fill-rule="nonzero" group-id="1,5" node-id="406" stroke="none" target-height="39.26001" target-width="39.264" target-x="74.81" target-y="190.902"></path><g node-id="587"><path d="M 128.37 208.65 L 127.61 202.58 L 119.42 202.06 C 118.95 200.51 118.34 199.03 117.61 197.62 L 123.26 191.74 L 119.58 186.88 L 112.22 190.53 C 111.05 189.43 109.79 188.45 108.44 187.59 L 110.39 179.66 L 104.77 177.30 L 100.23 184.12 C 98.68 183.77 97.09 183.54 95.47 183.48 L 93.21 175.64 L 87.15 176.40 L 86.63 184.59 C 85.07 185.06 83.59 185.66 82.18 186.40 L 76.31 180.75 L 71.44 184.44 L 75.09 191.79 C 74.00 192.96 73.01 194.23 72.15 195.58 L 64.23 193.62 L 61.86 199.24 L 68.68 203.78 C 68.33 205.33 68.10 206.92 68.04 208.54 L 60.20 210.81 L 60.97 216.86 L 69.15 217.38 C 69.62 218.94 70.23 220.42 70.96 221.83 L 65.31 227.71 L 69.00 232.57 L 76.35 228.92 C 77.52 230.02 78.79 231.00 80.14 231.86 L 78.18 239.78 L 83.81 242.15 L 88.35 235.32 C 89.89 235.68 91.48 235.90 93.10 235.97 L 95.37 243.81 L 101.43 243.04 L 101.94 234.86 C 103.50 234.38 104.98 233.78 106.39 233.05 L 112.27 238.70 L 117.13 235.01 L 113.48 227.66 C 114.58 226.49 115.56 225.22 116.42 223.87 L 124.35 225.83 L 126.72 220.20 L 119.89 215.66 C 120.25 214.12 120.47 212.53 120.54 210.91 L 128.37 208.65 Z M 96.48 227.53 C 86.69 228.76 77.75 221.83 76.52 212.04 C 75.29 202.26 82.22 193.32 92.01 192.09 C 101.80 190.86 110.73 197.79 111.96 207.58 C 113.20 217.37 106.26 226.30 96.48 227.53 Z" fill="#ffffff" fill-opacity="0.69" fill-rule="nonzero" group-id="1,5,18" node-id="410" stroke="none" target-height="68.173004" target-width="68.17" target-x="60.202" target-y="175.638"></path><path d="M 94.28 245.46 L 91.95 237.40 C 90.97 237.32 89.99 237.18 89.03 237.00 L 84.37 244.01 L 76.41 240.67 L 78.43 232.52 C 77.61 231.96 76.84 231.35 76.10 230.72 L 68.55 234.46 L 63.34 227.59 L 69.15 221.54 C 68.73 220.66 68.36 219.75 68.04 218.81 L 59.63 218.28 L 58.55 209.72 L 66.61 207.39 C 66.69 206.41 66.82 205.44 67.01 204.47 L 60.00 199.80 L 63.34 191.85 L 71.49 193.87 C 72.05 193.06 72.65 192.28 73.29 191.54 L 69.55 183.99 L 76.42 178.78 L 82.46 184.59 C 83.35 184.17 84.26 183.80 85.20 183.48 L 85.73 175.07 L 94.29 173.99 L 96.62 182.05 C 97.60 182.13 98.58 182.26 99.54 182.45 L 104.21 175.44 L 112.16 178.78 L 110.15 186.93 C 110.95 187.49 111.73 188.09 112.47 188.73 L 120.02 184.99 L 125.24 191.86 L 119.43 197.90 C 119.84 198.79 120.22 199.71 120.53 200.63 L 128.94 201.16 L 130.02 209.73 L 121.97 212.06 C 121.88 213.04 121.75 214.02 121.56 214.98 L 128.58 219.64 L 125.23 227.59 L 117.08 225.58 C 116.52 226.39 115.92 227.16 115.28 227.90 L 119.02 235.45 L 112.15 240.67 L 106.11 234.86 C 105.22 235.27 104.31 235.64 103.37 235.97 L 102.84 244.37 L 94.28 245.46 Z M 87.67 233.62 L 88.69 233.86 C 90.14 234.20 91.65 234.41 93.17 234.47 L 94.24 234.52 L 96.45 242.16 L 100.01 241.71 L 100.51 233.72 L 101.51 233.42 C 102.97 232.98 104.38 232.40 105.69 231.72 L 106.65 231.22 L 112.38 236.73 L 115.23 234.56 L 111.68 227.39 L 112.39 226.63 C 113.41 225.54 114.34 224.34 115.16 223.06 L 115.74 222.16 L 123.46 224.07 L 124.85 220.76 L 118.19 216.34 L 118.42 215.32 C 118.76 213.86 118.97 212.35 119.04 210.84 L 119.09 209.77 L 126.72 207.56 L 126.27 204.00 L 118.29 203.50 L 117.99 202.50 C 117.55 201.06 116.98 199.65 116.28 198.31 L 115.79 197.36 L 121.30 191.63 L 119.13 188.78 L 111.96 192.33 L 111.20 191.62 C 110.10 190.60 108.90 189.66 107.63 188.85 L 106.72 188.27 L 108.63 180.55 L 105.33 179.16 L 100.90 185.82 L 99.89 185.59 C 98.41 185.24 96.91 185.04 95.41 184.98 L 94.33 184.93 L 92.12 177.29 L 88.57 177.74 L 88.06 185.72 L 87.07 186.02 C 85.60 186.47 84.19 187.04 82.88 187.73 L 81.92 188.22 L 76.19 182.72 L 73.34 184.88 L 76.89 192.05 L 76.19 192.81 C 75.16 193.91 74.23 195.11 73.41 196.38 L 72.83 197.29 L 65.11 195.38 L 63.73 198.68 L 70.38 203.11 L 70.15 204.12 C 69.80 205.60 69.60 207.11 69.54 208.60 L 69.49 209.68 L 61.85 211.89 L 62.30 215.44 L 70.28 215.95 L 70.59 216.94 C 71.03 218.40 71.60 219.81 72.29 221.13 L 72.79 222.09 L 67.28 227.82 L 69.44 230.67 L 76.61 227.11 L 77.38 227.82 C 78.46 228.84 79.66 229.77 80.95 230.60 L 81.85 231.18 L 79.94 238.90 L 83.24 240.28 L 87.67 233.62 Z M 94.22 229.18 C 84.50 229.18 76.25 221.89 75.03 212.23 C 73.70 201.64 81.23 191.94 91.82 190.60 C 92.63 190.50 93.45 190.45 94.26 190.45 C 103.98 190.45 112.23 197.73 113.45 207.39 C 114.10 212.53 112.71 217.60 109.54 221.69 C 106.37 225.77 101.79 228.38 96.66 229.02 C 95.85 229.12 95.03 229.18 94.22 229.18 Z M 94.26 193.45 C 93.58 193.45 92.88 193.49 92.20 193.58 C 83.25 194.71 76.89 202.90 78.01 211.86 C 79.04 220.02 86.01 226.17 94.22 226.17 C 94.91 226.17 95.60 226.13 96.29 226.04 C 100.62 225.50 104.49 223.30 107.17 219.85 C 109.85 216.40 111.02 212.10 110.47 207.77 C 109.45 199.60 102.48 193.45 94.26 193.45 Z" fill="#ccccde" fill-opacity="0.69" fill-rule="nonzero" group-id="1,5,18" node-id="412" stroke="none" target-height="71.468994" target-width="71.467" target-x="58.553" target-y="173.989"></path></g><g node-id="588"><path d="M 102.34 209.72 C 102.34 214.16 98.74 217.77 94.29 217.77 C 89.84 217.77 86.24 214.16 86.24 209.72 C 86.24 205.27 89.84 201.66 94.29 201.66 C 98.74 201.66 102.34 205.27 102.34 209.72 Z" fill="#dbdbed" fill-opacity="0.69" fill-rule="nonzero" group-id="1,5,19" node-id="417" stroke="none" target-height="16.102005" target-width="16.102005" target-x="86.239" target-y="201.665"></path><path d="M 94.29 219.27 C 89.02 219.27 84.74 214.98 84.74 209.72 C 84.74 204.45 89.02 200.16 94.29 200.16 C 99.56 200.16 103.84 204.45 103.84 209.72 C 103.84 214.98 99.56 219.27 94.29 219.27 Z M 94.29 203.16 C 90.68 203.16 87.74 206.10 87.74 209.72 C 87.74 213.33 90.68 216.27 94.29 216.27 C 97.90 216.27 100.84 213.33 100.84 209.72 C 100.84 206.10 97.90 203.16 94.29 203.16 Z" fill="#ccccde" fill-opacity="0.69" fill-rule="nonzero" group-id="1,5,19" node-id="419" stroke="none" target-height="19.102997" target-width="19.102005" target-x="84.739" target-y="200.164"></path></g></g></g><g node-id="571"><g node-id="575"><path d="M 197.36 161.16 L 147.56 121.41 L 117.85 146.71 L 148.63 195.80" fill="#ffdfd1" fill-rule="nonzero" group-id="2,6" node-id="427" stroke="none" target-height="74.385" target-width="79.511" target-x="117.849" target-y="121.413"></path><path d="M 147.36 196.59 L 115.89 146.41 L 147.53 119.47 L 198.29 159.99 L 196.42 162.33 L 147.59 123.36 L 119.81 147.01 L 149.90 195.00 Z" fill="#6e6e96" fill-rule="nonzero" group-id="2,6" node-id="429" stroke="none" target-height="77.12499" target-width="82.406" target-x="115.889" target-y="119.469"></path></g><path d="M 128.57 74.96 C 128.57 74.96 131.17 81.73 135.21 83.85 L 137.06 81.82 L 128.57 74.96 Z" fill="#ffffff" fill-rule="nonzero" group-id="2" node-id="432" stroke="none" target-height="8.890999" target-width="8.494003" target-x="128.569" target-y="74.957"></path><path d="M 69.77 142.60 C 64.99 137.86 64.95 130.07 69.69 125.28 L 132.65 61.66 C 137.39 56.87 145.18 56.83 149.97 61.57 L 150.28 61.88 C 155.06 66.61 155.10 74.41 150.37 79.19 L 87.40 142.82 C 82.67 147.60 74.88 147.64 70.09 142.91 L 69.77 142.60 Z" fill="#dce2f0" fill-rule="nonzero" group-id="2,7,20" node-id="438" stroke="none" target-height="90.811" target-width="90.156" target-x="64.947" target-y="56.831"></path><path d="M 71.09 143.46 L 71.40 143.78 C 72.26 144.63 73.22 145.33 74.25 145.87 C 71.72 141.24 80.24 123.99 84.13 120.06 L 137.55 66.08 C 141.44 62.15 148.43 63.13 148.16 69.16 C 147.61 68.14 152.46 63.60 151.59 62.75 L 151.28 62.44 C 146.50 57.70 138.71 57.74 133.97 62.53 L 71.00 126.15 C 66.26 130.93 66.31 138.73 71.09 143.46 Z" fill="#f0f0ff" fill-rule="nonzero" group-id="2,7" node-id="441" stroke="none" target-height="88.162994" target-width="86.194" target-x="66.263" target-y="57.705"></path><path d="M 78.70 147.93 C 75.05 147.93 71.61 146.53 69.03 143.97 L 68.72 143.67 C 66.12 141.09 64.67 137.65 64.66 133.96 C 64.64 130.28 66.04 126.82 68.62 124.23 L 131.58 60.60 C 134.17 57.98 137.64 56.54 141.35 56.54 C 145.00 56.54 148.44 57.95 151.02 60.50 L 151.33 60.81 C 156.72 66.14 156.76 74.86 151.43 80.25 L 88.47 143.87 C 85.88 146.49 82.41 147.93 78.70 147.93 Z M 141.35 59.54 C 138.45 59.54 135.74 60.67 133.72 62.71 L 70.75 126.34 C 68.74 128.37 67.64 131.07 67.66 133.95 C 67.67 136.83 68.80 139.52 70.83 141.53 L 71.14 141.84 C 73.16 143.83 75.84 144.93 78.70 144.93 C 81.60 144.93 84.31 143.81 86.34 141.76 L 149.30 78.14 C 153.47 73.93 153.43 67.11 149.22 62.94 L 148.91 62.63 C 146.90 60.64 144.21 59.54 141.35 59.54 Z" fill="#6e6e96" fill-rule="nonzero" group-id="2,7,21" node-id="445" stroke="none" target-height="91.392006" target-width="92.124" target-x="64.637" target-y="56.54"></path><path d="M 175.08 56.05 C 170.91 60.27 164.05 60.30 159.83 56.13 L 157.15 53.48 C 152.94 49.31 152.90 42.45 157.07 38.23 L 169.83 25.34 C 166.48 23.99 162.84 23.25 159.00 23.27 C 143.23 23.36 130.50 36.21 130.59 51.99 C 130.67 67.77 143.52 80.50 159.30 80.41 C 175.08 80.33 187.81 67.47 187.72 51.70 C 187.71 49.14 187.36 46.66 186.71 44.30 L 175.08 56.05 Z" fill="#dce2f0" fill-rule="nonzero" group-id="2,7" node-id="448" stroke="none" target-height="57.244003" target-width="57.302994" target-x="130.503" target-y="23.251"></path><path d="M 156.11 38.82 L 168.87 25.93 C 166.80 25.09 164.63 24.50 162.37 24.16 L 156.06 30.53 C 150.38 36.27 150.39 41.97 152.02 45.88 C 152.54 44.61 155.09 39.85 156.11 38.82 Z M 186.43 48.15 C 184.49 61.96 172.67 74.72 158.31 74.80 C 142.53 74.88 130.65 60.06 133.62 44.27 C 134.28 40.79 135.08 37.43 136.09 34.31 C 132.02 39.28 129.58 45.65 129.62 52.58 C 129.70 68.35 142.55 81.08 158.34 81.00 C 174.12 80.92 186.84 68.06 186.76 52.28 C 186.75 50.87 186.64 49.49 186.43 48.15 Z" fill="#c4cad6" fill-rule="nonzero" group-id="2,7" node-id="450" stroke="none" target-height="56.916" target-width="57.25801" target-x="129.581" target-y="24.162"></path><path d="M 153.88 52.45 L 162.46 61.34 C 162.46 61.34 168.89 67.36 175.07 61.11 C 179.45 56.69 186.43 48.15 186.43 48.15 L 186.43 48.15 L 171.18 58.79 L 166.51 59.20 L 153.88 52.45 Z" fill="#f0f0ff" fill-rule="nonzero" group-id="2,7" node-id="452" stroke="none" target-height="19.211002" target-width="32.551987" target-x="153.876" target-y="48.148"></path><path d="M 133.15 46.14 C 133.15 46.14 136.29 31.42 157.54 29.04 L 161.25 25.30 C 161.24 25.30 139.19 22.97 133.15 46.14 Z" fill="#f0f0ff" fill-rule="nonzero" group-id="2,7" node-id="454" stroke="none" target-height="23.177002" target-width="28.10199" target-x="133.145" target-y="22.966"></path><path d="M 154.08 29.57 C 154.08 29.57 147.22 35.87 152.02 45.88 C 152.02 45.88 149.51 36.08 157.53 29.04 L 154.08 29.57 Z" fill="#f0f0ff" fill-rule="nonzero" group-id="2,7" node-id="456" stroke="none" target-height="16.835" target-width="10.315994" target-x="147.218" target-y="29.043"></path><path d="M 159.13 81.91 C 155.91 81.91 152.72 81.40 149.68 80.39 C 148.89 80.12 148.46 79.28 148.72 78.49 C 148.99 77.70 149.83 77.28 150.62 77.54 C 153.41 78.47 156.33 78.95 159.29 78.91 C 166.53 78.87 173.31 76.02 178.40 70.88 C 183.48 65.74 186.26 58.93 186.23 51.70 C 186.22 50.23 186.09 48.76 185.84 47.31 L 176.15 57.11 C 173.85 59.43 170.77 60.72 167.48 60.73 C 164.22 60.75 161.10 59.49 158.78 57.19 L 156.10 54.55 C 151.28 49.78 151.24 41.99 156.00 37.17 L 167.10 25.96 C 164.49 25.16 161.79 24.76 159.01 24.77 C 144.09 24.85 132.01 37.06 132.09 51.98 C 132.10 55.21 132.68 58.37 133.81 61.37 C 134.10 62.15 133.70 63.01 132.93 63.30 C 132.16 63.59 131.29 63.20 131.00 62.42 C 129.75 59.09 129.10 55.58 129.09 52.00 C 129.00 35.42 142.42 21.86 159.00 21.77 C 162.91 21.73 166.75 22.48 170.39 23.95 C 170.86 24.14 171.20 24.54 171.30 25.03 C 171.40 25.53 171.25 26.04 170.90 26.39 L 158.14 39.28 C 154.54 42.92 154.57 48.81 158.21 52.41 L 160.89 55.06 C 162.64 56.80 164.98 57.74 167.47 57.73 C 169.95 57.72 172.28 56.75 174.01 54.99 L 185.65 43.24 C 186.02 42.86 186.58 42.71 187.09 42.84 C 187.61 42.98 188.02 43.38 188.16 43.90 C 188.85 46.44 189.21 49.06 189.23 51.68 C 189.27 59.71 186.18 67.28 180.53 72.99 C 174.88 78.70 167.34 81.87 159.31 81.91 C 159.25 81.91 159.19 81.91 159.13 81.91 Z" fill="#6e6e96" fill-rule="nonzero" group-id="2,7" node-id="458" stroke="none" target-height="60.176003" target-width="60.269012" target-x="128.999" target-y="21.734"></path><path d="M 52.81 178.04 C 55.18 178.66 57.66 178.99 60.22 178.98 C 76.00 178.90 88.72 166.04 88.64 150.26 C 88.56 134.48 75.70 121.75 59.92 121.84 C 44.14 121.92 31.42 134.78 31.50 150.56 C 31.52 154.38 32.30 158.03 33.68 161.36 L 46.44 148.47 C 50.61 144.25 57.47 144.22 61.69 148.39 L 64.37 151.04 C 68.58 155.21 68.62 162.07 64.45 166.29 L 52.81 178.04 Z" fill="#dce2f0" fill-rule="nonzero" group-id="2,7" node-id="460" stroke="none" target-height="57.23501" target-width="57.304" target-x="31.418" target-y="121.755"></path><path d="M 54.04 143.34 C 50.12 141.74 44.41 141.79 38.73 147.54 L 32.43 153.90 C 32.78 156.16 33.41 158.33 34.26 160.38 L 47.01 147.49 C 48.03 146.46 52.77 143.87 54.04 143.34 Z M 60.80 178.00 C 76.57 177.92 89.30 165.07 89.22 149.29 C 89.13 133.50 76.28 120.78 60.50 120.86 C 53.57 120.90 47.23 123.40 42.31 127.53 C 45.41 126.48 48.76 125.65 52.23 124.96 C 68.00 121.82 82.94 133.54 83.02 149.32 C 83.09 163.69 70.46 175.64 56.66 177.72 C 58.01 177.91 59.39 178.01 60.80 178.00 Z" fill="#c4cad6" fill-rule="nonzero" group-id="2,7" node-id="462" stroke="none" target-height="57.228996" target-width="56.871998" target-x="32.426" target-y="120.781"></path><path d="M 67.51 157.69 L 67.14 162.35 L 56.66 177.72 L 56.66 177.72 C 56.66 177.72 65.13 170.65 69.50 166.23 C 75.69 159.98 69.60 153.61 69.60 153.61 L 60.63 145.12 L 67.51 157.69 Z" fill="#f0f0ff" fill-rule="nonzero" group-id="2,7" node-id="464" stroke="none" target-height="32.595" target-width="19.026997" target-x="56.66" target-y="145.124"></path><path d="M 33.55 152.77 L 37.26 149.03 C 39.41 127.75 54.10 124.46 54.10 124.46 C 30.99 130.74 33.55 152.77 33.55 152.77 Z" fill="#f0f0ff" fill-rule="nonzero" group-id="2,7" node-id="466" stroke="none" target-height="28.311005" target-width="23.114" target-x="30.99" target-y="124.457"></path><path d="M 37.26 149.02 C 44.22 140.93 54.04 143.34 54.04 143.34 C 43.97 138.63 37.75 145.56 37.75 145.56 L 37.26 149.02 Z" fill="#f0f0ff" fill-rule="nonzero" group-id="2,7" node-id="468" stroke="none" target-height="10.389008" target-width="16.777" target-x="37.259" target-y="138.635"></path><path d="M 60.09 180.48 C 57.52 180.48 54.94 180.15 52.43 179.49 C 51.91 179.36 51.51 178.96 51.37 178.44 C 51.22 177.92 51.37 177.37 51.75 176.99 L 63.38 165.23 C 65.12 163.48 66.07 161.14 66.06 158.66 C 66.04 156.17 65.07 153.84 63.32 152.11 L 60.63 149.46 C 58.89 147.73 56.57 146.78 54.10 146.78 C 54.09 146.78 54.07 146.78 54.05 146.78 C 51.57 146.79 49.24 147.77 47.51 149.52 L 34.75 162.41 C 34.40 162.77 33.89 162.93 33.40 162.83 C 32.90 162.73 32.49 162.40 32.30 161.93 C 30.79 158.32 30.02 154.49 30.00 150.56 C 29.91 133.98 43.33 120.42 59.91 120.33 C 64.23 120.32 69.19 121.18 72.52 122.53 C 73.29 122.84 73.66 123.72 73.34 124.49 C 73.03 125.25 72.16 125.62 71.39 125.31 C 68.39 124.09 63.92 123.31 59.93 123.33 C 45.00 123.41 32.92 135.62 33.00 150.55 C 33.02 153.31 33.44 156.02 34.28 158.62 L 45.37 147.41 C 47.67 145.09 50.75 143.80 54.04 143.78 C 57.34 143.76 60.42 145.02 62.74 147.32 L 65.43 149.97 C 67.75 152.27 69.04 155.35 69.06 158.64 C 69.07 161.93 67.82 165.02 65.52 167.34 L 55.81 177.14 C 57.27 177.37 58.74 177.48 60.21 177.48 C 67.44 177.44 74.22 174.59 79.31 169.45 C 84.40 164.31 87.18 157.49 87.14 150.26 C 87.13 147.75 86.77 145.28 86.09 142.91 C 85.86 142.11 86.32 141.28 87.11 141.05 C 87.92 140.82 88.74 141.28 88.97 142.07 C 89.73 144.71 90.12 147.46 90.14 150.25 C 90.18 158.28 87.09 165.85 81.44 171.56 C 75.79 177.27 68.26 180.44 60.23 180.48 C 60.18 180.48 60.13 180.48 60.09 180.48 Z" fill="#6e6e96" fill-rule="nonzero" group-id="2,7" node-id="470" stroke="none" target-height="60.157997" target-width="60.265" target-x="29.915" target-y="120.322"></path><path d="M 83.87 134.61 L 139.92 74.39 L 152.28 76.67 L 82.74 145.75 Z" fill="#c4cad6" fill-rule="nonzero" group-id="2" node-id="473" stroke="none" target-height="71.364006" target-width="69.549" target-x="82.736" target-y="74.389"></path><path d="M 112.47 120.82 C 109.81 123.69 105.28 123.85 102.42 121.18 L 84.30 104.31 C 81.44 101.65 81.28 97.13 83.94 94.27 L 84.33 93.85 C 86.99 90.99 91.51 90.83 94.38 93.49 L 112.50 110.36 C 115.36 113.02 115.52 117.55 112.86 120.41 L 112.47 120.82 Z" fill="#ffeae0" fill-rule="nonzero" group-id="2,8" node-id="477" stroke="none" target-height="33.018997" target-width="34.243996" target-x="81.276" target-y="90.83"></path><path d="M 107.26 124.58 C 105.08 124.58 102.99 123.76 101.40 122.28 L 83.28 105.41 C 81.60 103.85 80.63 101.72 80.55 99.42 C 80.47 97.11 81.28 94.92 82.84 93.25 L 83.23 92.83 C 84.85 91.09 87.15 90.10 89.53 90.10 C 91.72 90.10 93.80 90.91 95.40 92.39 L 113.52 109.26 C 115.20 110.82 116.17 112.95 116.25 115.25 C 116.33 117.56 115.51 119.75 113.95 121.43 L 113.57 121.84 C 111.95 123.58 109.65 124.58 107.26 124.58 Z M 89.53 93.10 C 87.98 93.10 86.48 93.75 85.42 94.88 L 85.04 95.29 C 84.02 96.38 83.49 97.81 83.55 99.31 C 83.60 100.81 84.23 102.20 85.32 103.22 L 103.45 120.09 C 104.48 121.05 105.84 121.58 107.26 121.58 C 108.82 121.58 110.32 120.93 111.37 119.80 L 111.75 119.39 C 112.77 118.30 113.30 116.87 113.25 115.36 C 113.20 113.86 112.57 112.47 111.48 111.46 L 93.35 94.59 C 92.32 93.63 90.96 93.10 89.53 93.10 Z" fill="#6e6e96" fill-rule="nonzero" group-id="2,8" node-id="479" stroke="none" target-height="34.485" target-width="35.863" target-x="80.466" target-y="90.096"></path><path d="M 105.13 113.54 C 102.79 116.05 98.54 115.92 95.67 113.26 L 90.46 108.41 C 87.60 105.74 87.17 101.51 89.50 99.00 C 91.84 96.49 96.09 96.62 98.96 99.28 L 104.17 104.14 C 107.03 106.80 107.46 111.03 105.13 113.54 Z" fill="#ffdfd1" fill-rule="nonzero" group-id="2,8" node-id="481" stroke="none" target-height="19.561005" target-width="20.293" target-x="87.169" target-y="96.492"></path><path d="M 122.54 110.00 C 119.88 112.86 115.36 113.03 112.50 110.36 L 92.78 92.01 C 89.92 89.35 89.76 84.82 92.42 81.96 L 92.81 81.55 C 95.47 78.69 100.00 78.53 102.86 81.19 L 122.57 99.54 C 125.43 102.20 125.59 106.73 122.93 109.59 L 122.54 110.00 Z" fill="#ffeae0" fill-rule="nonzero" group-id="2,8" node-id="483" stroke="none" target-height="34.5" target-width="35.836" target-x="89.759" target-y="78.525"></path><path d="M 113.88 101.37 C 111.54 103.88 107.29 103.75 104.43 101.09 L 99.21 96.24 C 96.35 93.58 95.92 89.34 98.26 86.83 C 100.59 84.32 104.84 84.45 107.71 87.11 L 112.92 91.96 C 115.78 94.63 116.21 98.86 113.88 101.37 Z" fill="#ffdfd1" fill-rule="nonzero" group-id="2,8" node-id="485" stroke="none" target-height="19.559006" target-width="20.293999" target-x="95.92" target-y="84.323"></path><path d="M 117.33 113.76 C 115.15 113.76 113.07 112.94 111.47 111.46 L 91.76 93.11 C 88.28 89.87 88.09 84.41 91.32 80.94 L 91.71 80.53 C 93.33 78.79 95.63 77.79 98.02 77.79 C 100.20 77.79 102.29 78.61 103.88 80.09 L 123.59 98.44 C 125.27 100.00 126.24 102.13 126.32 104.44 C 126.40 106.74 125.59 108.93 124.03 110.61 L 123.64 111.02 C 122.02 112.76 119.72 113.76 117.33 113.76 Z M 98.02 80.79 C 96.45 80.79 94.96 81.44 93.91 82.57 L 93.52 82.98 C 91.41 85.25 91.54 88.80 93.80 90.91 L 113.52 109.26 C 114.55 110.23 115.91 110.76 117.33 110.76 C 118.89 110.76 120.39 110.11 121.45 108.98 L 121.83 108.56 C 122.85 107.47 123.38 106.05 123.32 104.54 C 123.27 103.04 122.64 101.65 121.55 100.64 L 101.83 82.28 C 100.80 81.32 99.44 80.79 98.02 80.79 Z" fill="#6e6e96" fill-rule="nonzero" group-id="2,8" node-id="487" stroke="none" target-height="35.966003" target-width="38.312996" target-x="88.091" target-y="77.792"></path><path d="M 132.62 99.18 C 129.95 102.04 125.43 102.20 122.57 99.54 L 105.81 83.94 C 102.94 81.27 102.78 76.75 105.45 73.89 L 105.83 73.47 C 108.50 70.61 113.02 70.45 115.88 73.11 L 132.64 88.72 C 135.51 91.38 135.67 95.90 133.00 98.77 L 132.62 99.18 Z" fill="#ffeae0" fill-rule="nonzero" group-id="2,8" node-id="489" stroke="none" target-height="31.751" target-width="32.884003" target-x="102.784" target-y="70.45"></path><path d="M 126.28 92.63 C 123.94 95.14 119.69 95.02 116.83 92.35 L 111.62 87.50 C 108.76 84.83 108.33 80.60 110.66 78.09 C 113.00 75.58 117.25 75.70 120.11 78.37 L 125.33 83.22 C 128.19 85.89 128.62 90.12 126.28 92.63 Z" fill="#ffdfd1" fill-rule="nonzero" group-id="2,8" node-id="491" stroke="none" target-height="19.560997" target-width="20.291008" target-x="108.326" target-y="75.579"></path><path d="M 127.41 102.94 C 125.22 102.94 123.14 102.12 121.55 100.64 L 104.78 85.04 C 103.11 83.47 102.14 81.34 102.06 79.04 C 101.97 76.74 102.79 74.55 104.35 72.87 L 104.73 72.45 C 106.35 70.72 108.65 69.72 111.04 69.72 C 113.23 69.72 115.31 70.53 116.90 72.02 L 133.66 87.62 C 135.34 89.18 136.31 91.31 136.39 93.61 C 136.47 95.92 135.66 98.11 134.10 99.79 L 133.71 100.20 C 132.10 101.94 129.80 102.94 127.41 102.94 Z M 111.04 72.72 C 109.48 72.72 107.99 73.37 106.93 74.50 L 106.55 74.91 C 105.53 76.00 105.00 77.43 105.06 78.94 C 105.11 80.44 105.74 81.83 106.83 82.84 L 123.59 98.44 C 124.63 99.40 125.98 99.94 127.41 99.94 C 128.97 99.94 130.47 99.29 131.52 98.16 L 131.91 97.75 C 132.92 96.65 133.45 95.22 133.40 93.72 C 133.34 92.22 132.71 90.83 131.62 89.82 L 114.86 74.21 C 113.83 73.25 112.47 72.72 111.04 72.72 Z" fill="#6e6e96" fill-rule="nonzero" group-id="2,8" node-id="493" stroke="none" target-height="33.216995" target-width="34.502007" target-x="101.973" target-y="69.718"></path><path d="M 101.99 129.30 C 99.65 131.81 95.40 131.69 92.54 129.02 L 80.92 118.20 C 78.05 115.54 77.62 111.30 79.96 108.79 C 82.30 106.28 86.55 106.41 89.41 109.07 L 101.03 119.89 C 103.89 122.55 104.33 126.79 101.99 129.30 Z" fill="#ffeae0" fill-rule="nonzero" group-id="2,8" node-id="495" stroke="none" target-height="25.527008" target-width="26.702995" target-x="77.623" target-y="106.282"></path><path d="M 96.38 125.17 C 94.05 127.69 89.80 127.56 86.93 124.90 L 85.09 123.18 C 82.23 120.52 81.80 116.29 84.14 113.78 C 86.47 111.27 90.72 111.39 93.59 114.06 L 95.43 115.77 C 98.29 118.43 98.72 122.66 96.38 125.17 Z" fill="#ffdfd1" fill-rule="nonzero" group-id="2,8" node-id="497" stroke="none" target-height="16.422005" target-width="16.919998" target-x="81.799" target-y="111.266"></path><path d="M 97.66 132.60 C 95.42 132.60 93.24 131.72 91.52 130.12 L 79.89 119.30 C 78.24 117.76 77.21 115.73 77.00 113.59 C 76.77 111.37 77.43 109.30 78.86 107.77 C 80.23 106.30 82.16 105.49 84.28 105.49 C 86.53 105.49 88.71 106.37 90.43 107.97 L 102.06 118.79 C 103.71 120.33 104.73 122.35 104.95 124.50 C 105.18 126.72 104.52 128.78 103.09 130.32 C 101.72 131.79 99.79 132.60 97.66 132.60 Z M 84.28 108.49 C 83.00 108.49 81.85 108.96 81.06 109.81 C 80.22 110.71 79.84 111.94 79.98 113.29 C 80.12 114.70 80.82 116.06 81.94 117.10 L 93.56 127.92 C 94.71 128.99 96.20 129.60 97.66 129.60 C 98.95 129.60 100.10 129.13 100.89 128.28 C 101.72 127.38 102.11 126.15 101.97 124.80 C 101.82 123.38 101.13 122.03 100.01 120.99 L 88.39 110.17 C 87.24 109.10 85.74 108.49 84.28 108.49 Z" fill="#6e6e96" fill-rule="nonzero" group-id="2,8" node-id="499" stroke="none" target-height="27.115005" target-width="28.409004" target-x="76.77" target-y="105.487"></path><path d="M 88.98 118.31 C 88.61 118.31 88.25 118.17 87.96 117.91 C 87.35 117.34 87.32 116.39 87.88 115.78 L 91.94 111.43 C 92.50 110.82 93.45 110.78 94.06 111.35 C 94.67 111.91 94.70 112.86 94.14 113.47 L 90.08 117.83 C 89.78 118.15 89.38 118.31 88.98 118.31 Z" fill="#6e6e96" fill-rule="nonzero" group-id="2,8" node-id="501" stroke="none" target-height="7.5230026" target-width="7.3840027" target-x="87.318" target-y="110.784"></path><path d="M 95.29 105.03 C 94.92 105.03 94.56 104.90 94.27 104.63 C 93.66 104.06 93.63 103.11 94.19 102.51 L 98.77 97.59 C 99.33 96.98 100.28 96.94 100.89 97.51 C 101.50 98.07 101.53 99.02 100.97 99.63 L 96.39 104.55 C 96.09 104.87 95.69 105.03 95.29 105.03 Z" fill="#6e6e96" fill-rule="nonzero" group-id="2,8" node-id="503" stroke="none" target-height="8.084" target-width="7.903" target-x="93.629" target-y="96.945"></path><path d="M 104.78 90.60 C 104.42 90.60 104.05 90.47 103.76 90.20 C 103.16 89.64 103.12 88.69 103.69 88.08 L 105.86 85.75 C 106.42 85.14 107.37 85.11 107.98 85.67 C 108.59 86.23 108.62 87.18 108.06 87.79 L 105.88 90.13 C 105.59 90.44 105.19 90.60 104.78 90.60 Z" fill="#6e6e96" fill-rule="nonzero" group-id="2,8" node-id="505" stroke="none" target-height="5.498993" target-width="5.5" target-x="103.121" target-y="85.105"></path><path d="M 117.76 83.21 C 117.39 83.21 117.03 83.07 116.74 82.80 C 116.13 82.24 116.10 81.29 116.66 80.68 L 120.07 77.02 C 120.64 76.41 121.59 76.38 122.19 76.94 C 122.80 77.51 122.83 78.46 122.27 79.06 L 118.86 82.73 C 118.56 83.05 118.16 83.21 117.76 83.21 Z" fill="#6e6e96" fill-rule="nonzero" group-id="2,8" node-id="507" stroke="none" target-height="6.828003" target-width="6.7369995" target-x="116.097" target-y="76.378"></path><path d="M 157.89 108.16 C 151.70 77.99 128.67 80.31 128.67 80.31 C 128.67 80.31 103.75 105.58 101.79 114.45 C 101.67 114.99 101.60 115.48 101.58 115.94 C 101.71 116.21 101.82 116.52 101.89 116.91 C 102.08 118.00 102.39 118.89 102.77 119.63 C 103.02 119.90 104.71 118.63 105.01 118.83 L 103.29 120.49 C 107.52 120.33 114.48 117.33 114.48 117.33 L 95.54 137.35 C 101.68 149.21 117.28 152.47 117.28 152.47 C 166.44 148.06 157.89 108.16 157.89 108.16 Z" fill="#ffdfd1" fill-rule="nonzero" group-id="2" node-id="510" stroke="none" target-height="74.487" target-width="70.90099" target-x="95.542" target-y="77.987"></path><path d="M 117.20 153.19 C 100.88 153.19 95.19 140.64 94.14 137.88 C 93.85 137.11 94.23 136.24 95.01 135.95 C 95.78 135.65 96.65 136.04 96.94 136.81 C 97.97 139.49 104.00 152.72 122.47 149.75 C 123.29 149.61 124.06 150.17 124.19 150.99 C 124.32 151.81 123.77 152.58 122.95 152.71 C 120.90 153.04 118.99 153.19 117.20 153.19 Z" fill="#6e6e96" fill-rule="nonzero" group-id="2" node-id="512" stroke="none" target-height="17.543" target-width="30.475998" target-x="93.846" target-y="135.648"></path><path d="M 103.43 110.57 C 103.43 110.57 107.06 107.71 114.77 102.16 C 122.48 96.61 137.67 79.03 138.47 101.60 C 138.60 105.01 131.02 110.62 133.93 111.24 C 143.04 113.21 140.73 128.34 132.29 128.65 C 121.39 129.04 129.20 137.04 139.09 150.24 C 148.98 163.44 163.57 180.78 163.57 180.78 L 173.33 170.13 L 141.15 134.36 C 141.15 134.36 139.45 128.77 145.46 128.55 C 151.48 128.33 165.46 87.64 131.50 80.34 C 131.50 80.34 98.43 105.91 103.43 110.57 Z" fill="#ffffff" fill-opacity="0.42" fill-rule="nonzero" group-id="2,9" node-id="516" stroke="none" target-height="101.755" target-width="74.9" target-x="98.432" target-y="79.027"></path><path d="M 150.50 135.31 C 150.14 135.31 149.77 135.18 149.48 134.91 C 148.88 134.35 148.84 133.40 149.41 132.79 C 163.09 118.09 154.51 95.76 146.08 87.91 C 140.93 83.12 136.10 80.72 132.10 80.99 C 128.89 81.20 127.26 83.06 127.25 83.08 L 103.63 108.46 C 101.31 110.95 101.24 114.67 103.48 116.76 C 105.46 118.60 117.32 117.35 129.01 104.79 C 129.58 104.18 130.53 104.15 131.13 104.71 C 131.74 105.27 131.77 106.22 131.21 106.83 C 119.27 119.66 105.38 122.62 101.44 118.96 C 97.99 115.74 97.99 110.11 101.44 106.41 L 124.99 81.10 C 125.03 81.05 127.36 78.29 131.91 78.00 C 136.82 77.67 142.28 80.27 148.12 85.71 C 153.29 90.52 157.57 99.01 159.03 107.34 C 160.35 114.83 160.13 125.67 151.60 134.84 C 151.31 135.15 150.91 135.31 150.50 135.31 Z" fill="#6e6e96" fill-rule="nonzero" group-id="2,10" node-id="521" stroke="none" target-height="57.638" target-width="65.101" target-x="97.987" target-y="77.675"></path><path d="M 132.36 121.75 C 132.22 121.75 132.09 121.73 131.95 121.69 C 124.47 119.59 123.72 113.52 124.37 110.60 C 124.55 109.79 125.35 109.28 126.16 109.46 C 126.96 109.63 127.47 110.43 127.30 111.24 C 127.17 111.83 126.30 116.99 132.76 118.80 C 133.56 119.03 134.03 119.86 133.80 120.65 C 133.62 121.32 133.01 121.75 132.36 121.75 Z" fill="#6e6e96" fill-rule="nonzero" group-id="2" node-id="524" stroke="none" target-height="12.472" target-width="10.305992" target-x="123.719" target-y="109.277"></path><path d="M 111.55 126.32 L 104.25 134.17 C 104.25 134.17 99.38 139.99 109.99 136.79 C 117.75 136.51 146.59 170.46 158.97 185.15 C 160.89 187.42 160.89 187.42 160.89 187.42 L 149.38 193.71 L 120.99 151.29 C 120.99 151.29 96.01 150.70 95.46 135.26 L 109.39 118.59 L 122.33 112.67 L 132.47 102.09 C 132.47 102.09 124.56 110.19 132.31 113.40 C 145.49 118.86 132.72 129.05 126.97 123.70 C 119.64 116.87 118.85 118.48 111.55 126.32 Z" fill="#6e6e96" fill-opacity="0.15" fill-rule="nonzero" group-id="2,11" node-id="528" stroke="none" target-height="91.616" target-width="65.423996" target-x="95.463" target-y="102.095"></path><path d="M 101.07 109.64 C 101.07 109.64 104.31 117.78 114.24 111.22 C 120.25 107.24 128.56 99.70 134.17 100.76 C 136.67 101.23 134.31 104.62 130.81 108.37 C 116.36 123.90 95.77 120.45 101.07 109.64 Z" fill="#6e6e96" fill-opacity="0.15" fill-rule="nonzero" group-id="2,12" node-id="533" stroke="none" target-height="24.199997" target-width="40.899002" target-x="95.767" target-y="99.702"></path><path d="M 164.43 226.43 L 140.29 199.34 C 134.19 192.51 134.80 181.94 141.63 175.84 L 173.19 147.71 C 180.02 141.61 190.60 142.22 196.69 149.06 L 220.84 176.13" fill="#bad6ff" fill-rule="nonzero" group-id="2,13,22" node-id="540" stroke="none" target-height="84.81499" target-width="86.64801" target-x="134.191" target-y="141.613"></path><path d="M 171.18 220.76 L 147.04 193.68 C 141.93 187.95 141.55 179.61 145.57 173.46 L 141.63 176.97 C 134.80 183.07 134.20 193.65 140.29 200.48 L 164.43 227.56 L 220.84 177.27 L 220.45 176.83 L 171.18 220.76 Z" fill="#6e6e96" fill-opacity="0.15" fill-rule="nonzero" group-id="2,13,23" node-id="545" stroke="none" target-height="54.097" target-width="86.64299" target-x="134.197" target-y="173.464"></path><path d="M 164.67 154.76 C 171.50 148.66 182.08 149.27 188.18 156.11 L 211.94 182.75 L 219.07 176.39 L 194.93 149.31 C 188.83 142.47 178.25 141.87 171.42 147.96 L 139.87 176.10 C 138.76 177.08 137.83 178.20 137.05 179.39 L 164.67 154.76 Z" fill="#ffffff" fill-opacity="0.28" fill-rule="nonzero" group-id="2,13,24" node-id="550" stroke="none" target-height="40.878006" target-width="82.018005" target-x="137.053" target-y="141.873"></path><path d="M 164.43 227.93 C 164.02 227.93 163.61 227.76 163.31 227.43 L 139.17 200.34 C 135.95 196.74 134.34 192.08 134.62 187.23 C 134.89 182.38 137.03 177.94 140.64 174.72 L 172.19 146.59 C 175.79 143.37 180.44 141.76 185.30 142.03 C 190.16 142.31 194.60 144.45 197.81 148.06 L 221.96 175.14 C 222.51 175.75 222.46 176.70 221.84 177.25 C 221.22 177.81 220.27 177.75 219.72 177.13 L 195.57 150.05 C 192.89 147.05 189.18 145.26 185.13 145.03 C 181.07 144.80 177.19 146.15 174.19 148.83 L 142.63 176.96 C 139.63 179.64 137.84 183.35 137.61 187.40 C 137.38 191.45 138.73 195.34 141.41 198.35 L 165.55 225.43 C 166.10 226.05 166.05 227.00 165.43 227.55 C 165.15 227.80 164.79 227.93 164.43 227.93 Z" fill="#6e6e96" fill-rule="nonzero" group-id="2,13,25" node-id="555" stroke="none" target-height="86.17" target-width="88.17299" target-x="134.337" target-y="141.758"></path><path d="M 207.44 165.68 C 210.82 162.67 216.04 162.97 219.05 166.35 L 220.60 168.08 C 223.61 171.46 223.31 176.69 219.93 179.69 L 169.93 224.28 C 166.55 227.29 161.33 226.99 158.31 223.62 L 156.77 221.88 C 153.76 218.51 154.06 213.28 157.43 210.27 L 207.44 165.68 Z" fill="#bad6ff" fill-rule="nonzero" group-id="2,13" node-id="558" stroke="none" target-height="64.62401" target-width="69.854996" target-x="153.756" target-y="162.67"></path><path d="M 164.46 227.87 C 161.78 227.87 159.11 226.77 157.19 224.62 L 155.65 222.89 C 152.08 218.89 152.43 212.72 156.43 209.16 L 181.21 187.06 C 181.83 186.51 182.78 186.57 183.33 187.19 C 183.88 187.80 183.82 188.75 183.21 189.30 L 158.43 211.39 C 155.66 213.86 155.42 218.12 157.89 220.89 L 159.43 222.62 C 161.90 225.39 166.16 225.63 168.93 223.17 L 218.94 178.58 C 220.27 177.39 221.06 175.74 221.16 173.94 C 221.27 172.14 220.67 170.42 219.48 169.09 L 217.93 167.36 C 216.74 166.02 215.09 165.23 213.29 165.12 C 211.49 165.01 209.77 165.62 208.44 166.81 L 193.97 179.70 C 193.35 180.25 192.40 180.20 191.85 179.58 C 191.30 178.96 191.36 178.01 191.97 177.46 L 206.44 164.57 C 208.37 162.84 210.86 161.98 213.47 162.13 C 216.07 162.28 218.45 163.43 220.17 165.36 L 221.72 167.09 C 223.44 169.02 224.31 171.52 224.16 174.12 C 224.01 176.72 222.86 179.10 220.93 180.82 L 170.93 225.41 C 169.08 227.06 166.76 227.87 164.46 227.87 Z" fill="#6e6e96" fill-rule="nonzero" group-id="2,13" node-id="560" stroke="none" target-height="65.884" target-width="72.22801" target-x="152.079" target-y="161.983"></path><path d="M 187.12 184.74 C 183.91 181.55 176.99 190.80 169.49 198.36 C 166.99 200.89 165.25 203.13 164.12 205.00 L 157.39 211.00 C 154.01 214.01 153.72 219.23 156.73 222.61 L 158.27 224.35 C 161.29 227.72 166.51 228.02 169.89 225.01 L 179.10 216.80 C 175.72 219.81 170.50 219.51 167.48 216.13 L 165.94 214.40 C 165.03 213.38 164.43 212.21 164.12 210.96 L 183.40 194.16 C 183.40 194.16 190.34 187.92 187.12 184.74 Z" fill="#6e6e96" fill-opacity="0.15" fill-rule="nonzero" group-id="2,13,26" node-id="564" stroke="none" target-height="46.472" target-width="36.619003" target-x="153.716" target-y="181.551"></path><path d="M 155.49 191.82 C 155.49 193.34 154.26 194.57 152.74 194.57 C 151.22 194.57 149.99 193.34 149.99 191.82 C 149.99 190.30 151.22 189.07 152.74 189.07 C 154.26 189.07 155.49 190.30 155.49 191.82 Z" fill="#6e6e96" fill-rule="nonzero" group-id="2" node-id="568" stroke="none" target-height="5.5" target-width="5.5" target-x="149.988" target-y="189.073"></path></g></svg>