<?xml version="1.0" standalone="no"?><!DOCTYPE svg PUBLIC "-//W3C//DTD SVG 1.1//EN" "http://www.w3.org/Graphics/SVG/1.1/DTD/svg11.dtd"><svg height="817" node-id="1" sillyvg="true" template-height="817" template-width="654" version="1.1" viewBox="0 0 654 817" width="654" xmlns="http://www.w3.org/2000/svg" xmlns:xlink="http://www.w3.org/1999/xlink"><defs node-id="45"></defs><g node-id="119"><path d="M 562.72 172.88 C 615.22 206.58 639.09 284.81 645.36 360.33 C 651.63 435.85 640.45 508.67 613.36 587.91 C 586.27 667.15 543.42 753.00 476.00 782.31 C 408.43 811.77 316.32 784.68 247.06 739.97 C 178.00 695.27 131.60 632.79 88.25 565.05 C 44.90 497.31 4.43 424.17 0.37 341.87 C -3.86 259.58 28.31 168.00 92.15 136.30 C 156.15 104.64 251.83 133.08 340.39 141.72 C 428.95 150.36 510.23 139.18 562.72 172.88 Z" fill="#f0f0f0" fill-rule="nonzero" group-id="1" node-id="49" stroke="none" target-height="707.13" target-width="655.49" target-x="-3.86" target-y="104.64"></path><path d="M 400.00 816.52 C 428.14 745.67 483.00 709.34 486.00 622.35 C 486.10 615.91 380.00 547.48 330.50 548.63 C 281.00 549.78 216.21 816.52 216.21 816.52 Z" fill="#ffffff" fill-rule="nonzero" group-id="1" node-id="51" stroke="none" target-height="269.04004" target-width="269.89" target-x="216.21" target-y="547.48"></path><path d="M 183.97 51.61 L 501.46 51.61 L 501.46 617.35 L 183.97 617.35 Z" fill="#eaefff" fill-rule="nonzero" group-id="1" node-id="53" stroke="none" target-height="565.74" target-width="317.49" target-x="183.97" target-y="51.61"></path><path d="M 215.62 299.31 L 469.83 299.31 L 469.83 397.74 L 215.62 397.74 Z" fill="#ffffff" fill-rule="nonzero" group-id="1" node-id="55" stroke="none" target-height="98.42999" target-width="254.20999" target-x="215.62" target-y="299.31"></path><path d="M 319.12 327.68 L 435.31 327.68" fill="none" group-id="1" node-id="57" stroke="#b0c3fa" stroke-linecap="round" stroke-width="4.78" target-height="0" target-width="116.19" target-x="319.12" target-y="327.68"></path><path d="M 319.12 358.14 L 366.32 358.14" fill="none" group-id="1" node-id="59" stroke="#b0c3fa" stroke-linecap="round" stroke-width="4.78" target-height="0" target-width="47.200012" target-x="319.12" target-y="358.14"></path><path d="M 293.10 348.52 C 293.10 363.35 281.08 375.37 266.25 375.37 C 251.42 375.37 239.40 363.35 239.40 348.52 C 239.40 333.69 251.42 321.67 266.25 321.67 C 281.08 321.67 293.10 333.69 293.10 348.52 Z" fill="#ecc953" fill-rule="nonzero" group-id="1" node-id="61" stroke="none" target-height="53.69998" target-width="53.700012" target-x="239.4" target-y="321.67"></path><path d="M 439.20 733.55 C 460.33 700.77 479.27 667.47 481.00 617.35" fill="none" group-id="1" node-id="63" stroke="#1b3c87" stroke-linecap="round" stroke-width="4.78" target-height="116.20001" target-width="41.799988" target-x="439.2" target-y="617.35"></path><path d="M 395.00 811.52 C 400.97 796.81 408.15 782.63 416.47 769.11" fill="none" group-id="1" node-id="65" stroke="#1b3c87" stroke-linecap="round" stroke-width="4.78" target-height="42.410034" target-width="21.470001" target-x="395" target-y="769.11"></path><path d="M 215.62 154.80 L 469.83 154.80 L 469.83 253.23 L 215.62 253.23 Z" fill="#ffffff" fill-rule="nonzero" group-id="1" node-id="67" stroke="none" target-height="98.42999" target-width="254.20999" target-x="215.62" target-y="154.8"></path><path d="M 183.97 51.61 L 501.46 51.61 L 501.46 109.87 L 183.97 109.87 Z" fill="#d6dfff" fill-rule="nonzero" group-id="1" node-id="69" stroke="none" target-height="58.260002" target-width="317.49" target-x="183.97" target-y="51.61"></path><path d="M 183.97 559.08 L 501.46 559.08 L 501.46 617.34 L 183.97 617.34 Z" fill="#d6dfff" fill-rule="nonzero" group-id="1" node-id="71" stroke="none" target-height="58.26001" target-width="317.49" target-x="183.97" target-y="559.08"></path><path d="M 319.12 80.74 L 366.32 80.74" fill="none" group-id="1" node-id="73" stroke="#1b3c87" stroke-linecap="round" stroke-width="4.78" target-height="0" target-width="47.200012" target-x="319.12" target-y="80.74"></path><path d="M 356.71 588.21 C 356.71 595.94 350.45 602.20 342.72 602.20 C 334.99 602.20 328.73 595.94 328.73 588.21 C 328.73 580.48 334.99 574.22 342.72 574.22 C 350.45 574.22 356.71 580.48 356.71 588.21 Z" fill="#b0c3fa" fill-rule="nonzero" group-id="1" node-id="75" stroke="none" target-height="27.980042" target-width="27.97998" target-x="328.73" target-y="574.22"></path><path d="M 137.47 816.52 C 152.47 759.52 155.47 541.52 137.47 491.52 C 163.47 472.52 270.47 391.52 286.47 378.52 C 301.47 388.52 294.47 471.52 245.47 507.52 L 245.47 532.52 C 271.47 532.52 310.47 619.52 288.47 711.52 C 275.76 751.82 315.12 816.52 315.12 816.52 Z" fill="#ffffff" fill-rule="nonzero" group-id="1" node-id="77" stroke="none" target-height="438.00003" target-width="177.65" target-x="137.47" target-y="378.52"></path><path d="M 265.21 548.51 C 284.29 579.80 298.91 641.93 283.47 706.51" fill="none" group-id="1" node-id="79" stroke="#1b3c87" stroke-linecap="round" stroke-width="4.78" target-height="158" target-width="33.700012" target-x="265.21" target-y="548.51"></path><path d="M 266.25 385.42 C 273.39 379.91 278.75 375.73 281.47 373.52 C 296.47 383.52 289.47 466.52 240.47 502.52 L 240.47 520.71" fill="none" group-id="1" node-id="81" stroke="#1b3c87" stroke-linecap="round" stroke-width="4.78" target-height="147.19003" target-width="56" target-x="240.47" target-y="373.52"></path><path d="M 147.50 475.38 C 170.05 458.56 206.83 430.78 236.50 408.22" fill="none" group-id="1" node-id="83" stroke="#1b3c87" stroke-linecap="round" stroke-width="4.78" target-height="67.16" target-width="89" target-x="147.5" target-y="408.22"></path><path d="M 132.47 811.52 C 144.29 766.61 148.65 621.78 141.17 537.89" fill="none" group-id="1" node-id="85" stroke="#1b3c87" stroke-linecap="round" stroke-width="4.78" target-height="273.63" target-width="16.179993" target-x="132.47" target-y="537.89"></path><path d="M 413.30 183.17 L 435.31 183.17" fill="none" group-id="1" node-id="87" stroke="#b0c3fa" stroke-linecap="round" stroke-width="4.78" target-height="0" target-width="22.01001" target-x="413.3" target-y="183.17"></path><path d="M 319.12 183.17 L 391.29 183.17" fill="none" group-id="1" node-id="89" stroke="#b0c3fa" stroke-linecap="round" stroke-width="4.78" target-height="0" target-width="72.17001" target-x="319.12" target-y="183.17"></path><path d="M 319.12 213.63 L 366.32 213.63" fill="none" group-id="1" node-id="91" stroke="#b0c3fa" stroke-linecap="round" stroke-width="4.78" target-height="0" target-width="47.200012" target-x="319.12" target-y="213.63"></path><path d="M 293.10 204.01 C 293.10 218.84 281.08 230.86 266.25 230.86 C 251.42 230.86 239.40 218.84 239.40 204.01 C 239.40 189.18 251.42 177.16 266.25 177.16 C 281.08 177.16 293.10 189.18 293.10 204.01 Z" fill="#fb5d64" fill-rule="nonzero" group-id="1" node-id="93" stroke="none" target-height="53.699997" target-width="53.700012" target-x="239.4" target-y="177.16"></path><path d="M 534.72 471.19 C 608.55 520.53 489.02 614.19 457.10 640.06 C 448.84 634.14 443.11 553.79 534.72 471.19 Z" fill="#ffffff" fill-rule="nonzero" group-id="1" node-id="95" stroke="none" target-height="168.87" target-width="165.44" target-x="443.11" target-y="471.19"></path><path d="M 478.17 613.46 C 467.58 622.63 458.22 630.09 452.10 635.06 C 440.61 628.83 444.57 583.41 477.10 532.79" fill="none" group-id="1" node-id="97" stroke="#1b3c87" stroke-linecap="round" stroke-width="4.78" target-height="102.27002" target-width="37.560028" target-x="440.61" target-y="532.79"></path><path d="M 529.72 466.19 C 570.13 493.19 552.61 533.47 523.24 568.65" fill="none" group-id="1" node-id="99" stroke="#1b3c87" stroke-linecap="round" stroke-width="4.78" target-height="102.46002" target-width="46.890015" target-x="523.24" target-y="466.19"></path><path d="M 579.88 109.81 C 579.88 117.12 573.95 123.05 566.64 123.05 C 559.33 123.05 553.40 117.12 553.40 109.81 C 553.40 102.50 559.33 96.57 566.64 96.57 C 573.95 96.57 579.88 102.50 579.88 109.81 Z" fill="none" group-id="1" node-id="101" stroke="#b0c3fa" stroke-linecap="round" stroke-width="4.78" target-height="26.480003" target-width="26.47998" target-x="553.4" target-y="96.57"></path><path d="M 524.55 33.41 C 524.55 33.00 524.55 32.58 524.55 32.16 C 524.55 18.49 533.86 6.58 547.12 3.28 C 560.38 -0.03 574.19 6.12 580.61 18.19 C 587.02 30.26 584.40 45.14 574.24 54.29 C 564.08 63.43 549.00 64.48 537.67 56.84" fill="none" group-id="1" node-id="103" stroke="#b0c3fa" stroke-linecap="round" stroke-width="4.78" target-height="64.51454" target-width="62.472107" target-x="524.55" target-y="-0.03036289"></path><path d="M 624.81 73.38 C 616.05 70.75 610.00 62.75 609.86 53.60 C 609.71 44.46 615.50 36.27 624.17 33.36 C 632.84 30.45 642.40 33.49 647.80 40.87 C 653.20 48.25 653.21 58.28 647.81 65.66" fill="none" group-id="1" node-id="105" stroke="#b0c3fa" stroke-linecap="round" stroke-width="4.78" target-height="42.929832" target-width="43.494263" target-x="609.7124" target-y="30.450165"></path><path d="M 508.47 426.52 C 430.47 473.52 421.47 575.52 431.47 581.52 C 459.47 570.52 563.47 455.52 563.47 402.52 C 563.47 390.52 528.69 367.82 520.70 364.57 C 516.22 362.82 520.99 355.45 505.04 370.20 C 505.14 384.85 504.00 412.20 508.47 426.52 Z" fill="#ffffff" fill-rule="nonzero" group-id="1" node-id="107" stroke="none" target-height="226.07" target-width="141.99997" target-x="421.47" target-y="355.45"></path><path d="M 515.70 359.57 C 523.70 362.82 558.47 385.52 558.47 397.52 C 558.47 410.52 552.18 427.34 542.28 445.40" fill="none" group-id="1" node-id="109" stroke="#1b3c87" stroke-linecap="round" stroke-width="4.78" target-height="85.82999" target-width="42.76996" target-x="515.7" target-y="359.57"></path><path d="M 503.18 502.50 C 473.63 539.37 440.50 571.01 426.47 576.50 C 416.47 570.50 425.47 468.50 503.47 421.50" fill="none" group-id="1" node-id="111" stroke="#1b3c87" stroke-linecap="round" stroke-width="4.78" target-height="155" target-width="87" target-x="416.47" target-y="421.5"></path><path d="M 506.47 299.52 C 522.47 287.52 578.47 233.52 584.47 225.52 C 597.47 221.52 620.47 284.52 506.47 376.52" fill="#ffffff" fill-rule="nonzero" group-id="1" node-id="113" stroke="none" target-height="154.99998" target-width="113.99997" target-x="506.47" target-y="221.52"></path><path d="M 546.82 329.14 C 532.85 344.44 517.68 358.61 501.47 371.52" fill="none" group-id="1" node-id="115" stroke="#1b3c87" stroke-linecap="round" stroke-width="4.78" target-height="42.379974" target-width="45.350006" target-x="501.47" target-y="329.14"></path><path d="M 501.47 294.52 C 517.47 282.52 573.47 228.52 579.47 220.52 C 588.67 217.69 602.89 248.45 569.94 299.31" fill="none" group-id="1" node-id="117" stroke="#1b3c87" stroke-linecap="round" stroke-width="4.78" target-height="81.619995" target-width="101.42001" target-x="501.47" target-y="217.69"></path></g></svg>