<?xml version="1.0" standalone="no"?><!DOCTYPE svg PUBLIC "-//W3C//DTD SVG 1.1//EN" "http://www.w3.org/Graphics/SVG/1.1/DTD/svg11.dtd"><svg height="1073" node-id="1" sillyvg="true" template-height="1073" template-width="1731" version="1.1" viewBox="0 0 1731 1073" width="1731" xmlns="http://www.w3.org/2000/svg" xmlns:xlink="http://www.w3.org/1999/xlink"><defs node-id="172"></defs><g node-id="618"><path d="M 1703.25 912.75 C 1703.25 912.75 1668.00 560.62 1335.10 498.58 C 1216.34 476.43 1107.63 417.53 1026.17 329.03 C 1015.00 317.00 1003.81 304.14 992.69 290.50 C 879.44 152.00 689.80 99.11 521.56 162.20 C 467.43 182.47 414.14 213.44 366.78 259.74 C 305.78 319.47 266.13 397.37 252.15 481.26 C 238.59 563.00 204.48 700.57 125.65 737.11 C 117.79 740.64 110.34 745.00 103.41 750.11 C 74.70 771.54 16.11 827.29 35.60 914.43 Z" fill="#edf3ff" fill-rule="nonzero" group-id="1" node-id="176" stroke="none" target-height="815.32" target-width="1687.14" target-x="16.11" target-y="99.11"></path><g node-id="619"><path d="M 757.50 302.67 L 868.50 302.67" fill="none" group-id="1,2" node-id="180" stroke="#016efc" stroke-linecap="butt" stroke-opacity="0.25" stroke-width="1.68" target-height="0" target-width="111" target-x="757.5" target-y="302.67"></path></g><g node-id="620"><path d="M 682.07 330.39 L 903.49 330.39" fill="none" group-id="1,3" node-id="185" stroke="#016efc" stroke-linecap="butt" stroke-opacity="0.25" stroke-width="1.68" target-height="0" target-width="221.41998" target-x="682.07" target-y="330.39"></path></g><g node-id="621"><path d="M 708.34 358.00 L 861.74 358.00" fill="none" group-id="1,4" node-id="190" stroke="#016efc" stroke-linecap="butt" stroke-opacity="0.25" stroke-width="1.68" target-height="0" target-width="153.39996" target-x="708.34" target-y="358"></path></g><g node-id="622"><path d="M 662.57 388.24 L 877.64 388.24" fill="none" group-id="1,5" node-id="195" stroke="#016efc" stroke-linecap="butt" stroke-opacity="0.25" stroke-width="1.68" target-height="0" target-width="215.07" target-x="662.57" target-y="388.24"></path></g><g node-id="623"><path d="M 773.28 334.69 L 773.28 353.59" fill="none" group-id="1,6" node-id="200" stroke="#016efc" stroke-linecap="butt" stroke-opacity="0.25" stroke-width="1.68" target-height="18.899994" target-width="0" target-x="773.28" target-y="334.69"></path></g><g node-id="624"><path d="M 773.28 279.79 L 773.28 298.68" fill="none" group-id="1,7" node-id="205" stroke="#016efc" stroke-linecap="butt" stroke-opacity="0.25" stroke-width="1.68" target-height="18.889984" target-width="0" target-x="773.28" target-y="279.79"></path></g><g node-id="625"><path d="M 808.24 307.08 L 808.24 326.00" fill="none" group-id="1,8" node-id="210" stroke="#016efc" stroke-linecap="butt" stroke-opacity="0.25" stroke-width="1.68" target-height="18.920013" target-width="0" target-x="808.24" target-y="307.08"></path></g><g node-id="626"><path d="M 1362.22 687.34 L 1473.14 687.34" fill="none" group-id="1,9" node-id="215" stroke="#016efc" stroke-linecap="butt" stroke-opacity="0.25" stroke-width="1.68" target-height="0" target-width="110.920044" target-x="1362.22" target-y="687.34"></path></g><g node-id="627"><path d="M 1319.85 742.57 L 1430.76 742.57" fill="none" group-id="1,10" node-id="220" stroke="#016efc" stroke-linecap="butt" stroke-opacity="0.25" stroke-width="1.68" target-height="0" target-width="110.910034" target-x="1319.85" target-y="742.57"></path></g><g node-id="628"><path d="M 1286.78 715.00 L 1508.21 715.00" fill="none" group-id="1,11" node-id="225" stroke="#016efc" stroke-linecap="butt" stroke-opacity="0.25" stroke-width="1.68" target-height="0" target-width="221.42993" target-x="1286.78" target-y="715"></path></g><g node-id="629"><path d="M 1378.00 719.26 L 1378.00 738.16" fill="none" group-id="1,12" node-id="230" stroke="#016efc" stroke-linecap="butt" stroke-opacity="0.25" stroke-width="1.68" target-height="18.899963" target-width="0" target-x="1378" target-y="719.26"></path></g><g node-id="630"><path d="M 1378.00 664.35 L 1378.00 683.25" fill="none" group-id="1,13" node-id="235" stroke="#016efc" stroke-linecap="butt" stroke-opacity="0.25" stroke-width="1.68" target-height="18.900024" target-width="0" target-x="1378" target-y="664.35"></path></g><g node-id="631"><path d="M 1413.00 691.65 L 1413.00 710.55" fill="none" group-id="1,14" node-id="240" stroke="#016efc" stroke-linecap="butt" stroke-opacity="0.25" stroke-width="1.68" target-height="18.899963" target-width="0" target-x="1413" target-y="691.65"></path></g><g node-id="632"><path d="M 808.24 363.46 L 808.24 382.25" fill="none" group-id="1,15" node-id="245" stroke="#016efc" stroke-linecap="butt" stroke-opacity="0.25" stroke-width="1.68" target-height="18.790009" target-width="0" target-x="808.24" target-y="363.46"></path></g><g node-id="633"><path d="M 734.29 363.46 L 734.29 382.25" fill="none" group-id="1,16" node-id="250" stroke="#016efc" stroke-linecap="butt" stroke-opacity="0.25" stroke-width="1.68" target-height="18.790009" target-width="0" target-x="734.29" target-y="363.46"></path></g><g node-id="634"><path d="M 794.05 854.48 L 1015.47 854.48" fill="none" group-id="1,17" node-id="255" stroke="#016efc" stroke-linecap="butt" stroke-opacity="0.25" stroke-width="1.68" target-height="0" target-width="221.41998" target-x="794.05" target-y="854.48"></path></g><g node-id="635"><path d="M 820.32 882.20 L 973.73 882.20" fill="none" group-id="1,18" node-id="260" stroke="#016efc" stroke-linecap="butt" stroke-opacity="0.25" stroke-width="1.68" target-height="0" target-width="153.40997" target-x="820.32" target-y="882.2"></path></g><g node-id="636"><path d="M 885.26 858.89 L 885.26 877.68" fill="none" group-id="1,19" node-id="265" stroke="#016efc" stroke-linecap="butt" stroke-opacity="0.25" stroke-width="1.68" target-height="18.789978" target-width="0" target-x="885.26" target-y="858.89"></path></g><g node-id="637"><path d="M 920.23 831.28 L 920.23 850.07" fill="none" group-id="1,20" node-id="270" stroke="#016efc" stroke-linecap="butt" stroke-opacity="0.25" stroke-width="1.68" target-height="18.789978" target-width="0" target-x="920.23" target-y="831.28"></path></g><g node-id="638"><path d="M 920.23 887.55 L 920.23 906.34" fill="none" group-id="1,21" node-id="275" stroke="#016efc" stroke-linecap="butt" stroke-opacity="0.25" stroke-width="1.68" target-height="18.79004" target-width="0" target-x="920.23" target-y="887.55"></path></g><g node-id="639"><path d="M 846.28 887.55 L 846.28 906.34" fill="none" group-id="1,22" node-id="280" stroke="#016efc" stroke-linecap="butt" stroke-opacity="0.25" stroke-width="1.68" target-height="18.79004" target-width="0" target-x="846.28" target-y="887.55"></path></g><path d="M 119.00 914.57 C 119.00 914.57 -289.64 951.78 407.55 1007.34 C 407.55 1007.34 465.83 1011.11 385.64 1027.46 C 307.57 1043.29 426.74 1050.46 434.64 1050.84 C 651.89 1061.00 1467.15 1095.49 1575.42 1048.32 C 1575.42 1048.32 1646.22 1025.26 1508.25 1017.19 C 1415.74 1011.84 1502.60 1007.96 1508.25 1007.55 C 1613.90 998.95 1795.19 974.74 1708.64 913.11 Z" fill="#c6ddff" fill-rule="nonzero" group-id="1" node-id="283" stroke="none" target-height="182.38" target-width="2084.83" target-x="-289.64" target-y="913.11"></path><path d="M 12.37 913.11 L 1719.00 913.11" fill="none" group-id="1" node-id="285" stroke="#016efc" stroke-linecap="butt" stroke-width="1.68" target-height="0" target-width="1706.63" target-x="12.37" target-y="913.11"></path><path d="M 1015.15 979.94 C 1118.15 979.94 1201.61 973.69 1201.61 965.94 C 1201.61 958.19 1118.12 951.94 1015.15 951.94 C 912.18 951.94 828.69 958.19 828.69 965.94 C 828.69 973.69 912.17 979.94 1015.15 979.94 Z" fill="#8dbffc" fill-rule="nonzero" group-id="1" node-id="287" stroke="none" target-height="28" target-width="372.91998" target-x="828.69" target-y="951.94"></path><path d="M 1528.24 236.11 C 1540.94 193.91 1517.75 148.76 1475.89 134.17 C 1457.27 127.63 1436.93 127.89 1418.48 134.91 L 1418.36 134.91 C 1412.40 137.20 1406.70 140.12 1401.36 143.62 C 1375.36 153.91 1348.71 151.91 1331.97 148.87 C 1331.86 148.87 1331.66 148.76 1331.54 148.76 C 1326.06 147.01 1320.47 145.64 1314.80 144.67 C 1252.94 133.75 1190.96 169.55 1171.25 230.44 C 1149.74 296.90 1186.62 367.98 1253.57 389.29 C 1306.12 405.98 1372.23 396.53 1407.08 358.21 C 1414.42 349.88 1420.04 340.18 1423.61 329.66 C 1434.52 298.16 1454.33 295.22 1454.33 295.22 C 1492.00 289.34 1518.00 270.23 1528.24 236.11 Z" fill="#edf3ff" fill-rule="nonzero" group-id="1" node-id="289" stroke="none" target-height="278.35452" target-width="391.19995" target-x="1149.74" target-y="127.62548"></path><path d="M 1323.00 184.36 L 1420.36 184.36" fill="none" group-id="1,23" node-id="293" stroke="#016efc" stroke-linecap="butt" stroke-opacity="0.25" stroke-width="1.68" target-height="0" target-width="97.359985" target-x="1323" target-y="184.36"></path><path d="M 1349.82 242.20 L 1447.29 242.20" fill="none" group-id="1,24" node-id="298" stroke="#016efc" stroke-linecap="butt" stroke-opacity="0.25" stroke-width="1.68" target-height="0" target-width="97.47009" target-x="1349.82" target-y="242.2"></path><path d="M 1358.72 214.59 L 1483.41 214.59" fill="none" group-id="1,25" node-id="303" stroke="#016efc" stroke-linecap="butt" stroke-opacity="0.25" stroke-width="1.68" target-height="0" target-width="124.69006" target-x="1358.72" target-y="214.59"></path><path d="M 1417.83 218.90 L 1417.83 237.79" fill="none" group-id="1,26" node-id="308" stroke="#016efc" stroke-linecap="butt" stroke-opacity="0.25" stroke-width="1.68" target-height="18.89" target-width="0" target-x="1417.83" target-y="218.9"></path><path d="M 1380.54 191.29 L 1380.54 210.18" fill="none" group-id="1,27" node-id="313" stroke="#016efc" stroke-linecap="butt" stroke-opacity="0.25" stroke-width="1.68" target-height="18.89" target-width="0" target-x="1380.54" target-y="191.29"></path><path d="M 1456.61 191.29 L 1456.61 210.18" fill="none" group-id="1,28" node-id="318" stroke="#016efc" stroke-linecap="butt" stroke-opacity="0.25" stroke-width="1.68" target-height="18.89" target-width="0" target-x="1456.61" target-y="191.29"></path><path d="M 964.19 943.82 C 990.00 938.68 991.00 916.63 991.00 916.63 L 1018.55 916.63 C 1017.70 918.73 1017.49 922.09 1017.49 925.56 C 1017.80 932.51 1020.20 939.21 1024.38 944.77 C 1026.29 947.50 1027.42 950.69 1027.66 954.01 L 943.00 954.01 C 948.83 945.71 964.19 943.82 964.19 943.82 Z" fill="#013bff" fill-rule="nonzero" group-id="1" node-id="321" stroke="none" target-height="37.380005" target-width="84.660034" target-x="943" target-y="916.63"></path><path d="M 1027.54 954.00 C 1027.82 956.94 1027.48 959.91 1026.54 962.71 L 940.88 962.71 C 940.43 959.64 941.19 956.52 943.00 954.00 Z" fill="#ffffff" fill-rule="nonzero" group-id="1" node-id="323" stroke="none" target-height="8.710022" target-width="87.38953" target-x="940.4286" target-y="954"></path><path d="M 1028.07 602.72 L 1028.07 922.30 L 1006.36 922.30 L 984.64 602.72 Z" fill="#013bff" fill-rule="nonzero" group-id="1" node-id="325" stroke="none" target-height="319.58002" target-width="43.42993" target-x="984.64" target-y="602.72"></path><path d="M 979.00 602.72 L 984.62 602.72 L 1016.72 922.30 L 977.65 922.30 L 949.36 641.57 L 945.44 602.72 Z" fill="#007bff" fill-rule="nonzero" group-id="1" node-id="327" stroke="none" target-height="319.58002" target-width="71.27997" target-x="945.44" target-y="602.72"></path><path d="M 1023.94 957.68 C 1049.79 952.54 1050.75 930.49 1050.75 930.49 L 1078.29 930.49 C 1077.44 932.59 1077.23 935.95 1077.23 939.41 C 1077.54 946.36 1079.94 953.06 1084.12 958.63 C 1086.06 961.42 1087.20 964.69 1087.40 968.08 L 1002.65 968.08 C 1008.26 959.57 1023.94 957.68 1023.94 957.68 Z" fill="#013bff" fill-rule="nonzero" group-id="1" node-id="329" stroke="none" target-height="37.590027" target-width="84.75" target-x="1002.65" target-y="930.49"></path><path d="M 1087.30 968.18 C 1087.48 971.05 1087.12 973.94 1086.24 976.68 L 1000.64 976.68 C 1000.17 973.71 1000.85 970.67 1002.54 968.18 Z" fill="#ffffff" fill-rule="nonzero" group-id="1" node-id="331" stroke="none" target-height="8.5" target-width="87.30481" target-x="1000.17444" target-y="968.18"></path><path d="M 1082.85 602.72 L 1083.27 649.13 L 1085.27 934.59 L 1034.84 934.59 L 1007.63 654.00 L 1002.63 602.76 Z" fill="#007bff" fill-rule="nonzero" group-id="1" node-id="333" stroke="none" target-height="331.87006" target-width="82.640015" target-x="1002.63" target-y="602.72"></path><path d="M 967.90 232.33 C 968.65 228.08 970.36 224.06 972.90 220.58 C 978.20 213.58 989.00 204.09 1006.27 211.97 C 1010.60 213.96 1014.54 216.69 1017.92 220.05 C 1021.92 223.93 1029.92 230.76 1038.79 233.05 C 1041.64 233.83 1044.34 235.07 1046.79 236.72 C 1059.61 244.91 1103.58 274.72 1078.15 334.26 C 1070.95 350.95 1056.33 356.09 1044.15 356.83 C 1041.40 356.93 1038.85 353.36 1036.15 352.63 C 1031.28 334.99 1038.80 327.01 1035.73 311.37 C 1028.84 282.18 1007.97 271.26 984.56 256.15 C 984.88 253.30 984.70 250.42 984.03 247.64 C 984.03 247.64 976.93 245.02 972.37 260.35 C 972.14 260.37 964.09 254.49 967.90 232.33 Z" fill="#5b2f2e" fill-rule="nonzero" group-id="1" node-id="335" stroke="none" target-height="152.84" target-width="139.48993" target-x="964.09" target-y="204.09"></path><path d="M 973.83 288.08 C 976.88 281.98 979.47 275.67 981.57 269.18 C 994.17 272.23 996.29 293.33 993.75 303.72 C 990.25 318.32 997.88 333.33 979.87 351.07 C 976.83 350.00 973.99 348.40 971.50 346.35 C 961.75 337.84 956.25 321.26 973.83 288.08 Z" fill="#5b2f2e" fill-rule="nonzero" group-id="1" node-id="337" stroke="none" target-height="81.890015" target-width="41.630005" target-x="956.25" target-y="269.18"></path><path d="M 985.91 301.94 C 988.56 291.55 988.13 278.84 981.46 269.08 C 982.86 264.86 983.81 260.50 984.32 256.08 C 1007.73 271.20 1041.21 279.70 1048.10 308.89 C 1051.10 324.53 1045.77 340.07 1035.91 352.46 C 1030.91 350.99 1025.91 347.84 1021.91 341.54 C 1015.38 343.50 1009.03 345.99 1002.91 348.99 C 995.79 352.75 987.43 353.40 979.81 350.78 C 976.80 335.85 982.41 316.53 985.91 301.94 Z" fill="#2b0d0d" fill-rule="nonzero" group-id="1" node-id="339" stroke="none" target-height="97.318054" target-width="74.29999" target-x="976.8" target-y="256.08"></path><path d="M 1050.64 359.16 C 1050.64 359.16 1027.44 355.69 1027.23 324.41 C 1016.31 303.62 996.23 314.22 992.69 334.80 C 994.04 345.35 993.43 356.07 990.89 366.40 C 990.89 366.40 995.89 410.49 1016.00 419.00 C 1016.10 419.00 1058.37 384.00 1050.64 359.16 Z" fill="#fac897" fill-rule="nonzero" group-id="1" node-id="341" stroke="none" target-height="115.380005" target-width="67.47998" target-x="990.89" target-y="303.62"></path><path d="M 1027.33 326.09 C 1027.37 320.50 1027.83 314.91 1028.71 309.39 C 1014.80 310.11 1001.31 314.38 989.51 321.78 C 991.08 325.97 992.15 330.34 992.69 334.78 C 1003.50 356.53 1015.15 329.00 1027.33 326.09 Z" fill="#f29d59" fill-rule="nonzero" group-id="1" node-id="343" stroke="none" target-height="47.139984" target-width="39.19995" target-x="989.51" target-y="309.39"></path><path d="M 972.14 253.86 C 972.14 253.86 968.53 317.27 997.67 328.50 C 999.59 329.21 1001.67 329.36 1003.67 328.92 C 1010.13 327.66 1024.86 322.41 1032.17 301.42 C 1032.17 301.42 1040.64 299.11 1043.93 293.54 C 1046.79 288.54 1043.18 281.99 1037.36 282.41 C 1035.89 282.54 1034.45 282.93 1033.12 283.57 C 1033.21 280.26 1032.93 276.95 1032.27 273.70 C 1031.35 269.78 1028.40 266.66 1024.54 265.51 C 1016.17 262.99 996.36 256.17 990.32 245.67 C 987.32 240.31 982.69 240.10 980.15 240.67 C 976.48 241.68 973.62 244.20 972.14 253.86 Z" fill="#fac897" fill-rule="nonzero" group-id="1" node-id="345" stroke="none" target-height="89.25598" target-width="78.26001" target-x="968.53" target-y="240.1"></path><path d="M 979.34 274.54 C 979.34 274.54 986.76 271.28 989.62 277.27 L 991.52 301.83 L 999.68 301.20" fill="none" group-id="1" node-id="347" stroke="#035c8e" stroke-linecap="round" stroke-width="1.68" target-height="30.549988" target-width="20.339966" target-x="979.34" target-y="271.28"></path><path d="M 1000.74 312.23 C 1000.74 312.23 1009.64 310.97 1011.87 303.72" fill="none" group-id="1" node-id="349" stroke="#035c8e" stroke-linecap="round" stroke-width="1.68" target-height="8.51001" target-width="11.130005" target-x="1000.74" target-y="303.72"></path><path d="M 992.80 354.54 C 992.80 354.54 998.80 402.62 1034.80 348.87 C 1034.80 348.87 1097.09 362.52 1100.28 435.17 L 1057.36 435.17 L 1055.36 630.97 C 1055.36 630.97 988.00 642.20 964.00 624.35 L 968.66 431.91 C 968.66 431.91 942.60 434.54 929.99 424.67 C 930.00 424.56 955.61 353.28 992.80 354.54 Z" fill="#007bff" fill-rule="nonzero" group-id="1" node-id="351" stroke="none" target-height="293.33002" target-width="170.29004" target-x="929.99" target-y="348.87"></path><path d="M 893.42 472.75 C 900.84 457.84 935.27 405.67 937.28 399.75 C 941.20 388.20 953.60 355.34 992.90 354.50 L 998.09 400.59 C 999.15 408.49 999.68 416.45 999.68 424.42 L 1000.11 738.96 C 1000.11 738.96 944.38 731.82 918.53 693.96 C 918.53 693.96 956.03 558.11 951.53 492.49 C 951.53 492.49 939.66 522.62 923.14 531.96 C 895.33 547.61 861.11 537.84 893.42 472.75 Z" fill="#ffffff" fill-rule="nonzero" group-id="1" node-id="353" stroke="none" target-height="384.46002" target-width="139" target-x="861.11" target-y="354.5"></path><path d="M 1104.78 417.00 C 1092.06 381.20 1067.06 360.00 1032.95 352.44 L 1034.75 348.87 C 1056.68 352.44 1084.33 369.87 1096.09 381.62 C 1106.68 392.33 1114.41 409.76 1117.71 426.14 C 1125.12 463.72 1118.65 489.97 1114.63 513.38 C 1113.89 472.75 1115.68 447.66 1104.78 417.00 Z" fill="#c7ddff" fill-rule="nonzero" group-id="1" node-id="355" stroke="none" target-height="164.51001" target-width="92.170044" target-x="1032.95" target-y="348.87"></path><path d="M 1016.31 389.08 C 1022.99 373.08 1029.88 358.84 1032.95 352.44 C 1067.06 360.00 1097.15 383.93 1107.22 417.00 C 1115.58 444.62 1119.61 494.17 1111.87 524.51 C 1104.67 547.71 1094.50 572.07 1094.50 572.07 L 1116.75 699.31 C 1080.83 729.55 1009.22 739.00 1009.22 739.00 L 1007.52 433.70 C 1007.41 418.39 1010.40 403.21 1016.31 389.08 Z" fill="#ffffff" fill-rule="nonzero" group-id="1" node-id="357" stroke="none" target-height="386.56" target-width="112.20245" target-x="1007.40753" target-y="352.44"></path><path d="M 1031.15 399.89 L 1050.64 381.20 L 1026.27 393.28 Z" fill="#dcecff" fill-rule="nonzero" group-id="1" node-id="359" stroke="none" target-height="18.690002" target-width="24.369995" target-x="1026.27" target-y="381.2"></path><path d="M 988.45 363.00 L 976.16 382.84 L 992.00 393.70 L 984.69 403.88 L 996.50 465.00" fill="none" group-id="1" node-id="361" stroke="#016efc" stroke-linecap="butt" stroke-width="1.68" target-height="102" target-width="20.340027" target-x="976.16" target-y="363"></path><path d="M 943.85 611.65 L 936.12 650.65 C 936.12 650.65 948.94 667.55 976.59 664.09 L 977.43 635.63" fill="none" group-id="1" node-id="363" stroke="#016efc" stroke-linecap="butt" stroke-width="1.68" target-height="55.899963" target-width="41.309998" target-x="936.12" target-y="611.65"></path><path d="M 992.90 354.54 C 992.90 354.54 965.78 369.13 964.40 427.00 L 961.22 427.21 C 961.22 427.21 958.05 372.72 993.33 349.62 Z" fill="#5d9fff" fill-rule="nonzero" group-id="1" node-id="365" stroke="none" target-height="77.59" target-width="35.28003" target-x="958.05" target-y="349.62"></path><path d="M 1064.52 455.22 C 1070.88 418.89 1067.91 359.89 1030.62 342.15 L 1033.48 347.40 C 1033.48 347.40 1073.31 370.92 1060.81 453.96 C 1060.71 454.76 1060.18 455.45 1059.43 455.74 C 1047.04 460.68 1039.52 480.42 1035.28 499.63 C 1035.07 500.70 1035.72 501.74 1036.76 502.04 L 1040.05 502.88 C 1041.07 503.13 1042.10 502.53 1042.38 501.52 C 1042.72 500.47 1042.15 499.35 1041.11 499.00 L 1039.20 498.37 C 1041.53 488.81 1047.78 466.66 1057.20 461.10 C 1058.09 460.54 1059.17 460.37 1060.19 460.63 C 1061.21 460.89 1062.08 461.55 1062.60 462.46 C 1064.09 465.09 1064.72 469.60 1063.98 477.46 C 1063.44 482.46 1062.52 487.40 1061.23 492.26 L 1058.47 502.76 L 1056.88 502.34 C 1056.36 502.21 1055.81 502.29 1055.35 502.56 C 1054.89 502.84 1054.57 503.29 1054.44 503.81 L 1054.23 504.44 C 1053.99 505.45 1054.53 506.48 1055.50 506.85 L 1058.79 507.90 C 1059.31 508.07 1059.87 508.02 1060.35 507.76 C 1060.83 507.50 1061.18 507.06 1061.33 506.54 C 1063.66 498.87 1071.61 470.54 1066.10 459.29 C 1065.90 458.68 1064.31 456.06 1064.52 455.22 Z" fill="#5d9fff" fill-rule="nonzero" group-id="1" node-id="367" stroke="none" target-height="165.91718" target-width="42.690063" target-x="1030.62" target-y="342.15"></path><path d="M 963.66 438.63 C 968.24 438.59 971.92 434.86 971.89 430.28 C 971.86 425.70 968.14 422.01 963.56 422.03 C 958.98 422.05 955.28 425.76 955.29 430.34 C 955.30 432.55 956.19 434.66 957.76 436.22 C 959.33 437.77 961.45 438.64 963.66 438.63 Z" fill="#5d9fff" fill-rule="nonzero" group-id="1" node-id="369" stroke="none" target-height="16.626709" target-width="16.63269" target-x="955.28467" target-y="422.01392"></path><path d="M 963.66 434.43 C 965.92 434.41 967.74 432.57 967.73 430.31 C 967.72 428.05 965.88 426.22 963.61 426.23 C 961.35 426.24 959.52 428.08 959.53 430.34 C 959.54 431.43 959.97 432.47 960.75 433.24 C 961.52 434.01 962.57 434.44 963.66 434.43 Z" fill="#ffffff" fill-rule="nonzero" group-id="1" node-id="371" stroke="none" target-height="8.214325" target-width="8.218262" target-x="959.52454" target-y="426.22098"></path><path d="M 1036.44 356.53 L 1050.64 381.20 L 1026.27 393.28 L 1034.27 403.88 C 1034.27 403.88 1015.00 437.69 1013.00 465.00" fill="none" group-id="1" node-id="373" stroke="#016efc" stroke-linecap="butt" stroke-width="1.68" target-height="108.47" target-width="37.640015" target-x="1013" target-y="356.53"></path><path d="M 1064.20 733.43 C 1064.84 754.85 1065.58 776.16 1066.20 797.58 C 1067.26 831.70 1068.36 865.85 1069.49 900.04 C 1069.70 907.92 1070.02 915.79 1070.23 923.77 C 1070.23 924.15 1070.54 924.46 1070.92 924.46 C 1071.30 924.46 1071.61 924.15 1071.61 923.77 C 1070.97 902.35 1070.23 881.04 1069.61 859.62 C 1068.54 825.50 1067.45 791.35 1066.32 757.16 C 1066.11 749.28 1065.79 741.41 1065.58 733.43 C 1065.58 733.05 1065.27 732.74 1064.89 732.74 C 1064.51 732.74 1064.20 733.05 1064.20 733.43 Z" fill="#ffffff" fill-rule="nonzero" group-id="1" node-id="375" stroke="none" target-height="191.72003" target-width="7.410034" target-x="1064.2" target-y="732.74"></path><path d="M 907.94 393.07 L 990.00 403.36 C 993.03 403.73 995.46 406.03 996.00 409.03 L 1019.73 533.03 C 1020.15 535.27 1019.45 537.57 1017.86 539.20 C 1016.26 540.83 1013.98 541.58 1011.73 541.22 L 929.52 528.10 C 926.60 527.66 924.26 525.43 923.69 522.53 L 900.10 401.36 C 899.66 399.14 900.32 396.84 901.88 395.19 C 903.44 393.55 905.70 392.76 907.94 393.07 Z" fill="#c7ddff" fill-rule="nonzero" group-id="1" node-id="377" stroke="none" target-height="148.82877" target-width="120.486084" target-x="899.6604" target-y="392.75504"></path><path d="M 914.19 402.00 L 986.44 411.13 C 989.10 411.42 991.26 413.43 991.74 416.07 L 1012.61 525.15 C 1012.97 527.13 1012.35 529.17 1010.94 530.61 C 1009.53 532.05 1007.50 532.72 1005.51 532.39 L 933.26 520.85 C 930.69 520.44 928.66 518.46 928.17 515.91 L 907.30 409.24 C 906.93 407.29 907.51 405.28 908.88 403.85 C 910.25 402.41 912.23 401.72 914.19 402.00 Z" fill="#ffffff" fill-rule="nonzero" group-id="1" node-id="379" stroke="none" target-height="130.99423" target-width="106.04993" target-x="906.92505" target-y="401.72195"></path><path d="M 1033.69 500.15 L 1026.49 517.06 C 1026.49 517.06 997.88 510.76 984.85 495.32 C 981.29 491.28 979.43 486.01 979.66 480.63 C 979.87 476.22 981.57 471.49 987.92 471.81 C 990.74 471.98 993.43 473.09 995.55 474.96 C 999.47 478.21 1007.10 484.41 1011.02 485.56 L 1007.02 473.28 C 1006.75 472.38 1007.08 471.40 1007.85 470.86 C 1008.62 470.31 1009.64 470.31 1010.41 470.86 C 1014.20 473.80 1021.08 481.36 1033.69 500.15 Z" fill="#fac897" fill-rule="nonzero" group-id="1" node-id="381" stroke="none" target-height="46.75055" target-width="54.261047" target-x="979.4289" target-y="470.30945"></path><path d="M 903.70 444.09 C 903.77 443.15 904.27 442.30 905.05 441.77 C 905.82 441.24 906.80 441.09 907.70 441.36 C 910.25 442.10 913.21 443.57 913.21 446.51 C 913.42 448.39 914.24 450.14 915.54 451.51 C 917.23 453.37 918.28 455.73 918.54 458.23 C 919.28 464.11 919.39 472.93 913.98 472.72 C 913.98 472.72 906.98 473.77 903.98 465.79 C 904.12 465.72 902.21 458.26 903.70 444.09 Z" fill="#fac897" fill-rule="nonzero" group-id="1" node-id="383" stroke="none" target-height="32.68219" target-width="17.179993" target-x="902.21" target-y="441.0878"></path><path d="M 954.34 482.62 C 962.67 482.54 969.37 475.74 969.32 467.41 C 969.27 459.08 962.49 452.36 954.15 452.38 C 945.82 452.41 939.08 459.17 939.08 467.50 C 939.10 471.53 940.72 475.38 943.58 478.22 C 946.44 481.06 950.31 482.64 954.34 482.62 Z" fill="#c6ddff" fill-rule="nonzero" group-id="1" node-id="385" stroke="none" target-height="30.283386" target-width="30.291016" target-x="939.08" target-y="452.35522"></path><path d="M 914.93 414.27 C 917.48 414.25 919.53 412.17 919.51 409.62 C 919.49 407.07 917.42 405.02 914.87 405.03 C 912.32 405.04 910.26 407.11 910.27 409.66 C 910.28 410.89 910.77 412.07 911.64 412.93 C 912.52 413.80 913.70 414.28 914.93 414.27 Z" fill="#69a5ff" fill-rule="nonzero" group-id="1" node-id="387" stroke="none" target-height="9.258728" target-width="9.261841" target-x="910.2646" target-y="405.01926"></path><path d="M 1034.75 666.77 C 1079.56 683.25 1116.75 699.31 1116.75 699.31 L 1096.30 582.46 L 1094.50 572.07 L 1111.24 526.51 C 1111.24 526.51 1084.24 564.51 1030.51 520.84 L 1026.38 516.95 L 1027.97 518.74 L 1025.85 516.95 L 1029.77 520.73 L 1085.71 582.25 L 1060.00 610.70 L 1077.59 601.88 L 1082.15 651.88 C 1058.90 669.92 1034.75 666.77 1034.75 666.77 Z" fill="#c7ddff" fill-rule="nonzero" group-id="1" node-id="389" stroke="none" target-height="182.35999" target-width="90.900024" target-x="1025.85" target-y="516.95"></path><path d="M 191.13 837.16 L 272.00 837.16" fill="none" group-id="1" node-id="391" stroke="#ffffff" stroke-linecap="butt" stroke-width="1.68" target-height="0" target-width="80.869995" target-x="191.13" target-y="837.16"></path><path d="M 191.13 901.09 L 272.00 901.09" fill="none" group-id="1" node-id="393" stroke="#ffffff" stroke-linecap="butt" stroke-width="1.68" target-height="0" target-width="80.869995" target-x="191.13" target-y="901.09"></path><path d="M 1486.71 837.16 L 1567.54 837.16" fill="none" group-id="1" node-id="395" stroke="#ffffff" stroke-linecap="butt" stroke-width="1.68" target-height="0" target-width="80.83008" target-x="1486.71" target-y="837.16"></path><path d="M 1486.71 901.09 L 1567.54 901.09" fill="none" group-id="1" node-id="397" stroke="#ffffff" stroke-linecap="butt" stroke-width="1.68" target-height="0" target-width="80.83008" target-x="1486.71" target-y="901.09"></path><path d="M 314.87 613.22 L 661.00 613.22" fill="none" group-id="1,29" node-id="401" stroke="#016efc" stroke-linecap="butt" stroke-opacity="0.25" stroke-width="1.68" target-height="0" target-width="346.13" target-x="314.87" target-y="613.22"></path><path d="M 239.44 640.94 L 460.86 640.94" fill="none" group-id="1,30" node-id="406" stroke="#016efc" stroke-linecap="butt" stroke-opacity="0.25" stroke-width="1.68" target-height="0" target-width="221.41998" target-x="239.44" target-y="640.94"></path><path d="M 265.71 668.55 L 419.12 668.55" fill="none" group-id="1,31" node-id="411" stroke="#016efc" stroke-linecap="butt" stroke-opacity="0.25" stroke-width="1.68" target-height="0" target-width="153.41" target-x="265.71" target-y="668.55"></path><path d="M 219.94 698.79 L 485.12 698.79" fill="none" group-id="1,32" node-id="416" stroke="#016efc" stroke-linecap="butt" stroke-opacity="0.25" stroke-width="1.68" target-height="0" target-width="265.18" target-x="219.94" target-y="698.79"></path><path d="M 330.65 645.24 L 330.65 664.14" fill="none" group-id="1,33" node-id="421" stroke="#016efc" stroke-linecap="butt" stroke-opacity="0.25" stroke-width="1.68" target-height="18.900024" target-width="0" target-x="330.65" target-y="645.24"></path><path d="M 330.65 707.92 L 330.65 726.82" fill="none" group-id="1,34" node-id="426" stroke="#016efc" stroke-linecap="butt" stroke-opacity="0.25" stroke-width="1.68" target-height="18.900024" target-width="0" target-x="330.65" target-y="707.92"></path><path d="M 330.65 590.34 L 330.65 609.23" fill="none" group-id="1,35" node-id="431" stroke="#016efc" stroke-linecap="butt" stroke-opacity="0.25" stroke-width="1.68" target-height="18.889954" target-width="0" target-x="330.65" target-y="590.34"></path><path d="M 402.80 645.24 L 402.80 664.14" fill="none" group-id="1,36" node-id="436" stroke="#016efc" stroke-linecap="butt" stroke-opacity="0.25" stroke-width="1.68" target-height="18.900024" target-width="0" target-x="402.8" target-y="645.24"></path><path d="M 365.62 617.63 L 365.62 636.53" fill="none" group-id="1,37" node-id="441" stroke="#016efc" stroke-linecap="butt" stroke-opacity="0.25" stroke-width="1.68" target-height="18.900024" target-width="0" target-x="365.62" target-y="617.63"></path><path d="M 365.62 674.00 L 365.62 692.80" fill="none" group-id="1,38" node-id="446" stroke="#016efc" stroke-linecap="butt" stroke-opacity="0.25" stroke-width="1.68" target-height="18.799988" target-width="0" target-x="365.62" target-y="674"></path><path d="M 291.67 674.00 L 291.67 692.80" fill="none" group-id="1,39" node-id="451" stroke="#016efc" stroke-linecap="butt" stroke-opacity="0.25" stroke-width="1.68" target-height="18.799988" target-width="0" target-x="291.67" target-y="674"></path><path d="M 1132.11 226.87 L 1061.00 226.87 L 1061.00 191.00 C 1061.05 181.57 1068.74 173.96 1078.17 174.00 L 1132.00 174.00 C 1141.43 173.96 1149.11 181.57 1149.15 191.00 L 1149.15 209.90 C 1149.14 214.41 1147.34 218.73 1144.15 221.92 C 1140.95 225.10 1136.62 226.88 1132.11 226.87 Z" fill="#ffffff" fill-rule="nonzero" group-id="1" node-id="454" stroke="#016efc" stroke-linecap="butt" stroke-width="1.68" target-height="52.92491" target-width="88.150024" target-x="1061" target-y="173.9557"></path><path d="M 1127.77 194.85 L 1079.88 194.85" fill="none" group-id="1" node-id="456" stroke="#016efc" stroke-linecap="butt" stroke-width="1.68" target-height="0" target-width="47.890015" target-x="1079.88" target-y="194.85"></path><path d="M 1127.77 206.61 L 1079.88 206.61" fill="none" group-id="1" node-id="458" stroke="#016efc" stroke-linecap="butt" stroke-width="1.68" target-height="0" target-width="47.890015" target-x="1079.88" target-y="206.61"></path><path d="M 462.34 388.24 L 533.43 388.24 L 533.43 352.33 C 533.38 342.90 525.70 335.29 516.27 335.33 L 462.45 335.33 C 453.02 335.29 445.33 342.90 445.28 352.33 L 445.28 371.23 C 445.24 375.76 447.03 380.12 450.24 383.32 C 453.45 386.52 457.81 388.29 462.34 388.24 Z" fill="#ffffff" fill-rule="nonzero" group-id="1" node-id="460" stroke="#016efc" stroke-linecap="butt" stroke-width="1.68" target-height="53.005493" target-width="88.1879" target-x="445.2421" target-y="335.2857"></path><path d="M 466.68 356.22 L 514.46 356.22" fill="none" group-id="1" node-id="462" stroke="#016efc" stroke-linecap="butt" stroke-width="1.68" target-height="0" target-width="47.78003" target-x="466.68" target-y="356.22"></path><path d="M 466.68 368.00 L 514.46 368.00" fill="none" group-id="1" node-id="464" stroke="#016efc" stroke-linecap="butt" stroke-width="1.68" target-height="0" target-width="47.78003" target-x="466.68" target-y="368"></path><path d="M 606.32 424.67 C 586.93 428.55 584.49 440.73 584.92 448.50 L 585.92 448.82 C 596.20 485.46 602.55 485.87 615.27 482.73 C 618.55 482.20 619.08 473.80 622.47 463.93 C 623.31 460.03 624.66 456.25 626.47 452.70 C 623.16 423.00 606.32 424.67 606.32 424.67 Z" fill="#f29d59" fill-rule="nonzero" group-id="1" node-id="466" stroke="none" target-height="62.869995" target-width="41.97998" target-x="584.49" target-y="423"></path><path d="M 585.87 448.71 L 584.87 448.39 C 584.96 450.61 585.39 452.81 586.14 454.90 C 591.43 466.24 586.14 488.61 586.14 488.61 C 587.51 503.83 596.31 505.09 596.31 505.09 C 620.04 508.87 626.40 485.46 626.40 485.46 C 620.78 478.95 620.99 470.55 622.40 463.83 C 619.72 465.75 616.65 467.04 613.40 467.61 C 600.70 470.76 595.40 456.06 585.87 448.71 Z" fill="#fac897" fill-rule="nonzero" group-id="1" node-id="468" stroke="none" target-height="60.47998" target-width="41.53003" target-x="584.87" target-y="448.39"></path><path d="M 713.40 115.57 L 888.59 115.57 L 888.59 288.92 L 713.40 288.92 Z" fill="none" group-id="1" node-id="470" stroke="none" target-height="173.35" target-width="175.19" target-x="713.4" target-y="115.57"></path><path d="M 475.27 807.55 L 447.40 807.55 L 447.40 926.29 L 475.27 926.29 Z" fill="#69a5ff" fill-rule="nonzero" group-id="1" node-id="472" stroke="none" target-height="118.73999" target-width="27.869995" target-x="447.4" target-y="807.55"></path><path d="M 475.27 917.89 L 447.40 917.89 L 447.40 976.58 L 475.27 976.58 Z" fill="#8dbffc" fill-rule="nonzero" group-id="1" node-id="474" stroke="none" target-height="58.690002" target-width="27.869995" target-x="447.4" target-y="917.89"></path><path d="M 627.00 807.55 L 599.11 807.55 L 599.11 927.34 L 627.00 927.34 Z" fill="#69a5ff" fill-rule="nonzero" group-id="1" node-id="476" stroke="none" target-height="119.79004" target-width="27.890015" target-x="599.11" target-y="807.55"></path><path d="M 627.00 918.94 L 599.11 918.94 L 599.11 976.58 L 627.00 976.58 Z" fill="#8dbffc" fill-rule="nonzero" group-id="1" node-id="478" stroke="none" target-height="57.640015" target-width="27.890015" target-x="599.11" target-y="918.94"></path><path d="M 1173.85 903.19 L 1146.00 903.19 L 1146.00 976.58 L 1173.86 976.58 Z" fill="#8dbffc" fill-rule="nonzero" group-id="1" node-id="480" stroke="none" target-height="73.390015" target-width="27.859985" target-x="1146" target-y="903.19"></path><path d="M 1173.85 807.55 L 1146.00 807.55 L 1146.00 918.94 L 1173.86 918.94 Z" fill="#69a5ff" fill-rule="nonzero" group-id="1" node-id="482" stroke="none" target-height="111.390015" target-width="27.859985" target-x="1146" target-y="807.55"></path><path d="M 1344.85 807.55 L 1317.00 807.55 L 1317.00 941.00 L 1344.87 941.00 Z" fill="#69a5ff" fill-rule="nonzero" group-id="1" node-id="484" stroke="none" target-height="133.45001" target-width="27.869995" target-x="1317" target-y="807.55"></path><path d="M 1344.85 918.94 L 1317.00 918.94 L 1317.00 976.58 L 1344.87 976.58 Z" fill="#8dbffc" fill-rule="nonzero" group-id="1" node-id="486" stroke="none" target-height="57.640015" target-width="27.869995" target-x="1317" target-y="918.94"></path><path d="M 801.36 0.00 L 795.21 0.00 L 795.21 142.47 L 801.36 142.47 Z" fill="#ff5925" fill-rule="nonzero" group-id="1" node-id="488" stroke="none" target-height="142.47" target-width="6.1499634" target-x="795.21" target-y="0"></path><path d="M 801.36 220.68 C 816.00 220.54 827.76 208.59 827.67 193.95 C 827.58 179.32 815.66 167.52 801.03 167.56 C 786.39 167.61 774.55 179.48 774.55 194.12 C 774.58 201.20 777.42 207.97 782.45 212.95 C 787.48 217.94 794.28 220.71 801.36 220.68 Z" fill="#ffffff" fill-rule="nonzero" group-id="1" node-id="490" stroke="none" target-height="53.198746" target-width="53.21112" target-x="774.55" target-y="167.51581"></path><path d="M 736.63 197.16 L 866.63 197.16 C 869.68 197.18 872.59 195.87 874.59 193.56 C 876.59 191.25 877.47 188.18 877.01 185.16 C 874.68 170.67 866.73 146.42 840.46 131.72 C 817.61 119.04 789.99 118.45 766.62 130.14 C 749.14 138.86 730.81 155.14 726.36 185.26 C 725.87 188.25 726.74 191.31 728.72 193.60 C 730.70 195.90 733.60 197.20 736.63 197.16 Z" fill="#69a5ff" fill-rule="nonzero" group-id="1" node-id="492" stroke="none" target-height="78.74819" target-width="151.59814" target-x="725.87494" target-y="118.453804"></path><path d="M 637.57 374.70 C 637.57 374.70 611.40 405.70 598.27 414.59 C 598.27 414.59 606.32 427.92 598.58 437.06 C 599.26 440.80 599.30 444.63 598.69 448.39 C 597.42 455.74 588.84 459.10 582.59 455.01 C 571.78 447.77 551.97 431.18 551.76 406.93 C 551.78 404.67 552.17 402.44 552.92 400.31 C 554.62 395.59 557.92 385.72 557.05 379.84 C 557.05 379.84 555.89 347.92 614.79 354.22 C 614.79 354.22 626.13 354.43 633.33 351.22 C 638.33 349.01 644.33 351.01 646.33 356.05 C 648.16 360.21 647.10 366.40 637.57 374.70 Z" fill="#f37621" fill-rule="nonzero" group-id="1" node-id="494" stroke="none" target-height="111.17999" target-width="96.39996" target-x="551.76" target-y="347.92"></path><path d="M 635.34 377.85 C 639.79 389.85 653.25 433.07 626.87 452.49 C 626.87 452.49 607.16 462.99 595.19 437.06 C 595.19 437.06 591.80 438.21 585.76 427.50 C 585.76 427.50 581.31 414.59 590.76 414.17 C 591.64 414.17 592.48 413.76 593.02 413.06 C 593.56 412.36 593.74 411.45 593.52 410.60 C 590.87 401.05 588.75 377.85 630.81 374.91 C 632.79 374.83 634.61 376.01 635.34 377.85 Z" fill="#fac897" fill-rule="nonzero" group-id="1" node-id="496" stroke="none" target-height="88.164" target-width="71.94" target-x="581.31" target-y="374.826"></path><path d="M 766.08 545.30 C 766.08 545.30 773.71 524.82 781.86 522.41 C 781.86 522.41 817.86 506.66 837.59 512.86 C 837.59 512.86 845.75 523.67 818.84 534.48 C 818.84 534.48 782.29 544.48 778.05 556.11 C 778.05 556.11 768.00 553.91 766.08 545.30 Z" fill="#fac897" fill-rule="nonzero" group-id="1" node-id="498" stroke="none" target-height="49.44998" target-width="79.66998" target-x="766.08" target-y="506.66"></path><path d="M 1164.32 672.00 L 616.00 667.40 L 558.11 510.00 L 439.00 540.47 L 439.00 774.00 L 1164.29 774.00 Z" fill="#c6ddff" fill-rule="nonzero" group-id="1" node-id="500" stroke="none" target-height="264" target-width="725.31995" target-x="439" target-y="510"></path><path d="M 1164.32 774.00 L 439.00 774.00 L 439.00 829.00 L 1164.29 829.00 Z" fill="#69a5ff" fill-rule="nonzero" group-id="1" node-id="502" stroke="none" target-height="55" target-width="725.31995" target-x="439" target-y="774"></path><path d="M 565.10 528.00 L 459.69 555.30 L 459.69 737.63 L 1164.32 737.63 L 1164.32 671.00 L 616.00 671.00 Z" fill="#69a5ff" fill-rule="nonzero" group-id="1" node-id="504" stroke="none" target-height="209.63" target-width="704.62994" target-x="459.69" target-y="528"></path><path d="M 517.00 670.23 C 513.18 624.56 529.39 597.37 500.58 553.59 C 496.76 547.92 493.05 541.83 496.87 539.94 C 514.14 526.61 525.68 544.46 542.95 536.79 C 552.49 532.59 557.68 508.13 568.06 505.61 C 560.12 505.19 475.36 501.83 454.70 533.85 C 454.70 533.85 467.52 546.03 468.79 587.19 C 468.79 587.19 440.61 719.89 493.16 726.19 C 493.16 726.19 525.16 754.19 621.24 726.19 C 621.24 726.19 622.09 719.05 622.94 707.19 C 616.80 712.64 601.54 700.99 594.44 704.25 C 559.70 719.36 518.91 721.57 517.00 670.23 Z" fill="#8dbffc" fill-rule="nonzero" group-id="1" node-id="506" stroke="none" target-height="252.36002" target-width="182.33002" target-x="440.61" target-y="501.83"></path><path d="M 568.60 505.61 L 568.00 505.61 C 557.67 507.99 547.57 511.26 537.80 515.38 C 520.53 523.04 499.34 515.38 482.08 528.71 C 478.26 530.60 478.26 538.26 482.08 543.93 C 510.89 587.71 489.81 639.15 493.62 684.82 C 495.53 736.27 568.53 736.27 603.17 721.04 C 610.27 717.79 616.62 712.75 622.77 707.19 C 626.00 659.31 628.25 535.43 568.60 505.61 Z" fill="#c6ddff" fill-rule="nonzero" group-id="1" node-id="508" stroke="none" target-height="230.66003" target-width="149.98999" target-x="478.26" target-y="505.61"></path><path d="M 888.55 1030.54 C 1141.14 1030.54 1345.91 1021.28 1345.91 1009.86 C 1345.91 998.44 1141.14 989.18 888.55 989.18 C 635.96 989.18 431.19 998.44 431.19 1009.86 C 431.19 1021.28 636.00 1030.54 888.55 1030.54 Z" fill="#8dbffc" fill-rule="nonzero" group-id="1" node-id="510" stroke="none" target-height="41.360046" target-width="914.72003" target-x="431.19" target-y="989.18"></path><path d="M 593.39 620.05 C 569.55 581.20 565.32 536.27 570.08 492.05 C 544.66 501.39 541.69 525.86 541.69 525.86 C 527.60 660.55 571.14 665.07 571.14 665.07 C 599.32 760.31 698.00 743.83 698.00 743.83 C 696.09 721.36 705.00 697.74 714.63 679.47 C 668.93 671.70 618.61 663.41 593.39 620.05 Z" fill="#077a4b" fill-rule="nonzero" group-id="1" node-id="512" stroke="none" target-height="268.26" target-width="187.03003" target-x="527.6" target-y="492.05"></path><path d="M 783.77 549.81 L 768.41 538.47 L 726.14 583.93 C 694.04 609.44 685.24 563.14 685.24 563.14 C 676.24 479.05 626.34 485.46 626.34 485.46 C 608.44 505.09 586.08 488.61 586.08 488.61 C 580.65 489.02 575.31 490.16 570.19 492.00 C 565.42 536.20 569.66 581.14 593.50 620.00 C 618.71 663.30 669.00 671.60 714.59 679.36 C 720.48 668.07 727.36 657.32 735.14 647.24 C 713.32 645.98 705.69 638.31 705.69 638.31 C 748.00 639.68 783.77 549.81 783.77 549.81 Z" fill="#12a072" fill-rule="nonzero" group-id="1" node-id="514" stroke="none" target-height="200.31" target-width="218.35004" target-x="565.42" target-y="479.05"></path><path d="M 696.26 720.73 C 704.42 739.42 770.74 782.73 790.34 749.07 C 829.01 737.07 855.34 714.43 892.04 734.90 C 961.04 776.69 1107.11 800.62 1142.17 741.31 L 1142.17 661.62 C 1142.17 661.62 1099.37 633.49 1004.77 645.45 C 1004.77 645.45 945.02 654.06 897.55 642.51 C 897.55 642.51 848.82 616.51 779.74 628.87 C 718.93 645.14 680.79 683.35 696.26 720.73 Z" fill="#c6ddff" fill-rule="nonzero" group-id="1" node-id="516" stroke="none" target-height="184.10999" target-width="461.38007" target-x="680.79" target-y="616.51"></path><path d="M 898.82 701.41 C 862.17 680.94 819.47 708.24 780.70 720.10 C 758.34 725.24 725.70 735.43 717.56 716.74 C 702.09 679.26 739.38 649.65 779.56 628.66 C 752.87 633.49 723.20 643.98 692.16 663.93 C 692.16 663.93 590.77 719.26 617.58 813.75 C 617.58 813.75 726.17 798.42 820.67 813.75 C 820.67 813.75 1033.19 840.94 1142.10 813.75 L 1142.10 741.00 C 1067.49 771.65 967.79 743.30 898.82 701.41 Z" fill="#8dbffc" fill-rule="nonzero" group-id="1" node-id="518" stroke="none" target-height="212.28003" target-width="551.32996" target-x="590.77" target-y="628.66"></path><path d="M 461.71 1011.64 C 474.15 1011.52 484.15 1001.37 484.07 988.93 C 483.99 976.49 473.86 966.46 461.42 966.50 C 448.99 966.54 438.93 976.64 438.93 989.08 C 438.96 995.09 441.37 1000.85 445.64 1005.08 C 449.92 1009.31 455.70 1011.67 461.71 1011.64 Z" fill="#013bff" fill-rule="nonzero" group-id="1" node-id="520" stroke="none" target-height="45.212646" target-width="45.22336" target-x="438.92502" target-y="966.4592"></path><path d="M 613.10 1011.64 C 625.54 1011.52 635.54 1001.37 635.46 988.93 C 635.38 976.49 625.25 966.46 612.81 966.50 C 600.38 966.54 590.32 976.64 590.32 989.08 C 590.35 995.09 592.76 1000.85 597.03 1005.08 C 601.31 1009.31 607.09 1011.67 613.10 1011.64 Z" fill="#013bff" fill-rule="nonzero" group-id="1" node-id="522" stroke="none" target-height="45.212646" target-width="45.22339" target-x="590.315" target-y="966.4592"></path><path d="M 1159.87 1011.64 C 1172.31 1011.52 1182.31 1001.37 1182.23 988.93 C 1182.15 976.49 1172.02 966.46 1159.58 966.50 C 1147.15 966.54 1137.09 976.64 1137.09 989.08 C 1137.12 995.09 1139.53 1000.85 1143.80 1005.08 C 1148.08 1009.31 1153.86 1011.67 1159.87 1011.64 Z" fill="#013bff" fill-rule="nonzero" group-id="1" node-id="524" stroke="none" target-height="45.212646" target-width="45.223267" target-x="1137.0851" target-y="966.4592"></path><path d="M 1331.00 1011.64 C 1343.44 1011.53 1353.44 1001.37 1353.37 988.93 C 1353.29 976.49 1343.17 966.46 1330.73 966.50 C 1318.29 966.54 1308.22 976.64 1308.23 989.08 C 1308.26 995.09 1310.67 1000.85 1314.94 1005.08 C 1319.21 1009.31 1324.99 1011.67 1331.00 1011.64 Z" fill="#013bff" fill-rule="nonzero" group-id="1" node-id="526" stroke="none" target-height="45.208313" target-width="45.219727" target-x="1308.225" target-y="966.46094"></path><path d="M 634.71 392.54 C 634.71 392.54 627.40 392.02 626.23 396.74 L 630.47 420.05 L 624.11 420.05" fill="none" group-id="1" node-id="528" stroke="#035c8e" stroke-linecap="round" stroke-width="1.68" target-height="28.029999" target-width="10.600037" target-x="624.11" target-y="392.02"></path><path d="M 631.32 433.49 L 622.74 433.49" fill="none" group-id="1" node-id="530" stroke="#035c8e" stroke-linecap="round" stroke-width="1.68" target-height="0" target-width="8.580017" target-x="622.74" target-y="433.49"></path><path d="M 649.65 520.00 C 655.84 519.94 660.83 514.89 660.79 508.69 C 660.75 502.50 655.71 497.50 649.52 497.52 C 643.32 497.54 638.31 502.57 638.31 508.76 C 638.32 511.76 639.52 514.62 641.65 516.73 C 643.78 518.84 646.65 520.02 649.65 520.00 Z" fill="#f37621" fill-rule="nonzero" group-id="1" node-id="532" stroke="none" target-height="22.513641" target-width="22.51648" target-x="638.31" target-y="497.5023"></path><path d="M 711.84 631.49 C 718.04 631.43 723.02 626.38 722.98 620.18 C 722.94 613.98 717.90 608.99 711.70 609.01 C 705.50 609.03 700.49 614.06 700.50 620.26 C 700.51 623.25 701.72 626.12 703.84 628.23 C 705.97 630.33 708.85 631.51 711.84 631.49 Z" fill="#f37621" fill-rule="nonzero" group-id="1" node-id="534" stroke="none" target-height="22.517334" target-width="22.52356" target-x="700.49475" target-y="608.98865"></path><path d="M 707.92 686.19 C 709.82 681.88 707.49 674.11 709.61 670.13 C 626.13 632.75 621.89 657.00 597.73 617.63 C 573.16 577.74 612.00 533.75 570.61 492.00 C 555.77 497.36 544.94 510.26 542.22 525.81 C 529.30 648.50 564.36 663.20 570.72 664.88 C 570.61 664.88 570.51 664.77 570.40 664.77 C 570.51 664.77 570.61 664.88 570.72 664.88 C 571.03 664.99 571.35 665.06 571.67 665.09 C 571.68 665.17 571.72 665.24 571.78 665.30 C 615.18 681.77 661.58 688.89 707.92 686.19 Z" fill="#12a072" fill-rule="nonzero" group-id="1" node-id="536" stroke="none" target-height="196.88977" target-width="180.52002" target-x="529.3" target-y="492"></path><path d="M 709.51 670.23 C 709.51 670.23 745.42 661.31 756.86 670.23 C 759.71 672.22 762.76 673.90 765.97 675.23 C 765.97 675.23 786.10 682.89 763.11 693.29 C 763.11 693.29 731.43 694.23 706.96 686.15 Z" fill="#fac897" fill-rule="nonzero" group-id="1" node-id="538" stroke="none" target-height="32.919983" target-width="79.13995" target-x="706.96" target-y="661.31"></path><path d="M 562.46 533.12 C 568.65 533.06 573.64 528.01 573.60 521.81 C 573.56 515.62 568.52 510.62 562.33 510.64 C 556.13 510.66 551.12 515.69 551.12 521.88 C 551.13 524.88 552.33 527.74 554.46 529.85 C 556.59 531.96 559.46 533.14 562.46 533.12 Z" fill="#f37621" fill-rule="nonzero" group-id="1" node-id="540" stroke="none" target-height="22.513641" target-width="22.51648" target-x="551.12" target-y="510.62228"></path><path d="M 571.25 659.00 C 577.44 658.94 582.43 653.89 582.39 647.69 C 582.35 641.50 577.31 636.50 571.12 636.52 C 564.92 636.54 559.91 641.57 559.91 647.76 C 559.92 650.75 561.13 653.62 563.25 655.73 C 565.38 657.84 568.26 659.01 571.25 659.00 Z" fill="#f37621" fill-rule="nonzero" group-id="1" node-id="542" stroke="none" target-height="22.511047" target-width="22.51648" target-x="559.91" target-y="636.50226"></path><path d="M 552.71 541.20 C 549.43 556.32 548.90 572.07 549.85 587.50 C 550.49 599.05 551.54 611.44 555.57 622.36 C 555.89 623.20 557.16 622.78 556.84 622.04 C 552.92 611.12 551.84 598.94 551.23 587.50 C 550.38 572.17 550.80 556.64 554.09 541.50 C 554.19 540.68 552.92 540.36 552.71 541.20 Z" fill="#ffffff" fill-rule="nonzero" group-id="1" node-id="544" stroke="none" target-height="82.84003" target-width="8.259949" target-x="548.9" target-y="540.36"></path><path d="M 589.90 659.10 C 602.72 666.35 617.55 670.34 631.90 673.70 C 649.59 677.70 667.71 680.20 685.82 680.10 C 686.17 680.06 686.43 679.76 686.43 679.41 C 686.43 679.07 686.17 678.77 685.82 678.73 C 667.77 678.68 649.79 676.57 632.22 672.43 C 618.02 669.18 603.40 665.19 590.58 658.05 C 589.79 657.53 589.15 658.68 589.90 659.10 Z" fill="#ffffff" fill-rule="nonzero" group-id="1" node-id="546" stroke="none" target-height="22.669983" target-width="97.27704" target-x="589.15" target-y="657.53"></path><path d="M 582.59 538.00 C 582.59 538.00 567.22 629.50 638.00 646.19 C 638.00 646.19 580.68 636.64 582.59 538.00 Z" fill="#077a4b" fill-rule="nonzero" group-id="1" node-id="548" stroke="none" target-height="108.19" target-width="70.78003" target-x="567.22" target-y="538"></path><path d="M 700.50 638.10 C 700.50 638.10 667.76 632.75 660.98 592.10 C 661.00 592.12 670.20 625.61 700.50 638.10 Z" fill="#077a4b" fill-rule="nonzero" group-id="1" node-id="550" stroke="none" target-height="46" target-width="39.52002" target-x="660.98" target-y="592.1"></path><path d="M 590.85 500.05 C 602.85 505.19 619.77 504.05 628.67 493.64 C 629.20 493.01 628.25 492.07 627.72 492.70 C 619.24 502.70 602.93 503.83 591.48 498.89 C 590.74 498.58 590.00 499.73 590.85 500.05 Z" fill="#ffffff" fill-rule="nonzero" group-id="1" node-id="552" stroke="none" target-height="13.119995" target-width="39.200012" target-x="590" target-y="492.07"></path><path d="M 1158.91 819.21 L 1158.91 577.53 C 1158.92 574.95 1159.95 572.49 1161.78 570.67 C 1163.61 568.86 1166.08 567.85 1168.66 567.87 L 1147.37 567.87 C 1144.79 567.85 1142.32 568.86 1140.49 570.67 C 1138.66 572.49 1137.63 574.95 1137.62 577.53 L 1137.62 819.21 C 1137.63 821.78 1138.66 824.25 1140.49 826.06 C 1142.32 827.87 1144.80 828.88 1147.37 828.86 L 1168.66 828.86 C 1163.31 828.87 1158.96 824.56 1158.91 819.21 Z" fill="#69a5ff" fill-rule="nonzero" group-id="1" node-id="554" stroke="none" target-height="261.02722" target-width="31.04004" target-x="1137.62" target-y="567.8514"></path><path d="M 1336.16 567.87 L 1314.87 567.87 C 1317.44 567.85 1319.92 568.86 1321.75 570.68 C 1323.57 572.49 1324.60 574.96 1324.61 577.53 L 1324.61 819.21 C 1324.60 821.78 1323.57 824.25 1321.74 826.06 C 1319.92 827.87 1317.44 828.88 1314.87 828.86 L 1336.16 828.86 C 1338.73 828.88 1341.21 827.87 1343.04 826.06 C 1344.87 824.25 1345.90 821.78 1345.91 819.21 L 1345.91 577.53 C 1345.90 574.95 1344.87 572.49 1343.04 570.67 C 1341.21 568.86 1338.74 567.85 1336.16 567.87 Z" fill="#c6ddff" fill-rule="nonzero" group-id="1" node-id="556" stroke="none" target-height="261.02722" target-width="31.04004" target-x="1314.87" target-y="567.8514"></path><path d="M 1324.61 819.21 L 1324.61 577.53 C 1324.60 574.96 1323.57 572.49 1321.75 570.68 C 1319.92 568.86 1317.44 567.85 1314.87 567.87 L 1168.66 567.87 C 1166.08 567.85 1163.61 568.86 1161.78 570.67 C 1159.95 572.49 1158.92 574.95 1158.91 577.53 L 1158.91 819.21 C 1158.92 821.78 1159.95 824.25 1161.78 826.06 C 1163.61 827.87 1166.09 828.88 1168.66 828.86 L 1314.87 828.86 C 1320.21 828.86 1324.56 824.55 1324.61 819.21 Z M 1245.89 607.00 C 1245.89 608.26 1245.39 609.47 1244.49 610.35 C 1243.60 611.24 1242.39 611.73 1241.13 611.72 L 1186.57 611.72 C 1185.31 611.73 1184.10 611.24 1183.20 610.36 C 1182.30 609.47 1181.80 608.26 1181.80 607.00 L 1181.80 594.12 C 1181.80 592.86 1182.30 591.65 1183.20 590.76 C 1184.09 589.87 1185.31 589.38 1186.57 589.39 L 1241.13 589.39 C 1242.39 589.38 1243.60 589.88 1244.49 590.76 C 1245.39 591.65 1245.89 592.86 1245.89 594.12 Z M 1317.89 611.62 L 1263.34 611.62 C 1262.08 611.63 1260.86 611.14 1259.97 610.25 C 1259.07 609.36 1258.57 608.15 1258.57 606.89 L 1258.57 594.00 C 1258.57 592.74 1259.07 591.53 1259.97 590.64 C 1260.87 589.76 1262.08 589.27 1263.34 589.28 L 1317.89 589.28 C 1319.15 589.27 1320.36 589.76 1321.26 590.64 C 1322.16 591.53 1322.66 592.74 1322.66 594.00 L 1322.66 606.91 C 1322.67 608.17 1322.17 609.37 1321.28 610.26 C 1320.39 611.15 1319.19 611.65 1317.93 611.65 Z" fill="#c6ddff" fill-rule="nonzero" group-id="1" node-id="558" stroke="none" target-height="261.02722" target-width="165.69995" target-x="1158.91" target-y="567.8514"></path><path d="M 1313.00 784.00 L 1193.23 784.00 C 1187.41 784.01 1182.68 779.32 1182.64 773.50 L 1182.64 665.09 C 1182.68 659.27 1187.41 654.58 1193.23 654.59 L 1313.00 654.59 C 1318.82 654.58 1323.55 659.27 1323.59 665.09 L 1323.59 773.54 C 1323.52 779.34 1318.80 784.01 1313.00 784.00 Z" fill="#8dbffc" fill-rule="nonzero" group-id="1" node-id="560" stroke="none" target-height="129.427" target-width="140.94995" target-x="1182.64" target-y="654.57886"></path><path d="M 1400.57 817.53 L 1379.39 912.75 L 1671.78 912.75 L 1657.00 817.53 Z" fill="#8dbffc" fill-rule="nonzero" group-id="1" node-id="562" stroke="none" target-height="95.21997" target-width="292.39" target-x="1379.39" target-y="817.53"></path><path d="M 1528.76 898.57 C 1599.56 898.57 1656.95 866.05 1656.95 825.92 C 1656.95 785.79 1599.56 753.27 1528.76 753.27 C 1457.96 753.27 1400.57 785.80 1400.57 825.92 C 1400.57 866.04 1458.00 898.57 1528.76 898.57 Z" fill="#69a5ff" fill-rule="nonzero" group-id="1" node-id="564" stroke="none" target-height="145.29999" target-width="256.38" target-x="1400.57" target-y="753.27"></path><path d="M 1528.76 891.33 C 1599.56 891.33 1656.95 858.80 1656.95 818.68 C 1656.95 778.56 1599.56 746.00 1528.76 746.00 C 1457.96 746.00 1400.57 778.53 1400.57 818.65 C 1400.57 858.77 1458.00 891.33 1528.76 891.33 Z" fill="#c6ddff" fill-rule="nonzero" group-id="1" node-id="566" stroke="none" target-height="145.33002" target-width="256.38" target-x="1400.57" target-y="746"></path><path d="M 1437.64 852.91 L 1623.05 852.91 C 1623.05 852.91 1533.85 757.89 1437.64 852.91 Z" fill="#8dbffc" fill-rule="nonzero" group-id="1" node-id="568" stroke="none" target-height="95.01996" target-width="185.41003" target-x="1437.64" target-y="757.89"></path><path d="M 1578.23 856.90 C 1584.23 848.81 1586.50 841.25 1584.91 834.53 C 1584.64 833.28 1584.18 832.07 1583.54 830.96 L 1582.54 816.16 C 1582.01 803.56 1575.76 800.52 1568.45 801.67 C 1568.45 801.67 1495.56 814.59 1495.34 814.59 L 1495.34 809.44 L 1489.09 815.53 L 1478.40 815.53 L 1472.15 809.44 L 1472.15 836.53 C 1472.14 838.18 1472.80 839.77 1473.98 840.93 C 1475.15 842.10 1476.75 842.74 1478.40 842.72 L 1493.00 842.72 C 1493.72 842.73 1494.43 842.62 1495.11 842.41 C 1495.83 842.62 1496.59 842.73 1497.34 842.72 L 1501.79 842.72 C 1501.45 843.88 1501.37 845.10 1501.57 846.29 C 1501.96 848.87 1504.16 850.78 1506.77 850.81 C 1507.02 850.83 1507.27 850.79 1507.51 850.70 C 1510.12 850.32 1512.05 848.09 1512.06 845.45 C 1512.91 844.61 1515.45 843.45 1517.79 842.72 L 1547.79 842.72 C 1547.44 843.88 1547.37 845.10 1547.58 846.29 C 1547.96 848.87 1550.16 850.78 1552.76 850.81 C 1553.01 850.83 1553.26 850.79 1553.50 850.70 C 1556.11 850.32 1558.05 848.09 1558.06 845.45 C 1558.91 844.61 1561.45 843.45 1563.78 842.72 L 1576.39 842.72 C 1575.31 846.08 1573.62 849.22 1571.39 851.96 C 1569.35 854.66 1567.94 857.78 1567.25 861.10 C 1565.98 867.81 1568.11 871.38 1570.12 873.17 C 1571.89 874.66 1574.52 874.52 1576.12 872.85 C 1576.90 872.05 1577.31 870.96 1577.25 869.84 C 1577.19 868.72 1576.66 867.68 1575.80 866.97 C 1575.37 866.55 1575.06 865.08 1575.59 862.67 C 1576.05 860.58 1576.95 858.61 1578.23 856.90 Z" fill="#ffffff" fill-rule="nonzero" group-id="1" node-id="570" stroke="none" target-height="74.13806" target-width="114.35547" target-x="1472.1445" target-y="800.52"></path><path d="M 1479.71 831.59 C 1481.83 830.65 1484.26 830.65 1486.38 831.59" fill="none" group-id="1" node-id="572" stroke="#016efc" stroke-linecap="round" stroke-width="1.68" target-height="0.94384766" target-width="6.670044" target-x="1479.71" target-y="830.6462"></path><path d="M 1363.70 132.07 L 1183.81 132.07 L 1183.81 352.65 L 1363.70 352.65 Z" fill="#8dbffc" fill-rule="nonzero" group-id="1" node-id="574" stroke="none" target-height="220.57999" target-width="179.8899" target-x="1183.81" target-y="132.07"></path><path d="M 1350.67 144.00 L 1196.84 144.00 L 1196.84 340.78 L 1350.67 340.78 Z" fill="#ffffff" fill-rule="nonzero" group-id="1" node-id="576" stroke="none" target-height="196.78" target-width="153.83008" target-x="1196.84" target-y="144"></path><path d="M 1211.46 272.86 L 1337.64 272.86 L 1309.00 242.62 L 1297.67 253.86 L 1269.48 216.80 L 1239.40 262.46 L 1228.81 251.13 Z" fill="#8dbffc" fill-rule="nonzero" group-id="1" node-id="578" stroke="none" target-height="56.059982" target-width="126.18005" target-x="1211.46" target-y="216.8"></path><path d="M 1255.00 275.90 C 1255.00 275.90 1276.62 283.15 1259.00 293.44 C 1256.78 294.71 1254.39 295.66 1251.91 296.27 C 1235.70 300.27 1177.64 311.18 1255.91 336.69 L 1337.59 336.69 C 1337.59 336.69 1210.59 317.06 1266.08 302.05 C 1270.10 301.01 1273.93 299.32 1277.41 297.05 C 1285.25 291.69 1293.41 282.24 1265.34 276.15 L 1255.00 276.15 Z" fill="#c7ddff" fill-rule="nonzero" group-id="1" node-id="580" stroke="none" target-height="60.79001" target-width="159.94995" target-x="1177.64" target-y="275.9"></path><path d="M 1321.00 185.20 C 1326.09 185.16 1330.19 181.00 1330.16 175.91 C 1330.13 170.81 1325.99 166.71 1320.89 166.72 C 1315.80 166.73 1311.68 170.87 1311.68 175.96 C 1311.69 178.42 1312.68 180.78 1314.43 182.51 C 1316.17 184.24 1318.54 185.21 1321.00 185.20 Z" fill="#ff5925" fill-rule="nonzero" group-id="1" node-id="582" stroke="none" target-height="18.504822" target-width="18.509155" target-x="1311.68" target-y="166.70581"></path><path d="M 1268.00 310.00 L 1308.26 310.00" fill="none" group-id="1" node-id="584" stroke="#016efc" stroke-linecap="butt" stroke-width="1.68" target-height="0" target-width="40.26001" target-x="1268" target-y="310"></path><path d="M 1219.19 283.36 L 1253.73 283.36" fill="none" group-id="1" node-id="586" stroke="#016efc" stroke-linecap="butt" stroke-width="1.68" target-height="0" target-width="34.54004" target-x="1219.19" target-y="283.36"></path><path d="M 1212.53 288.50 L 1232.00 288.50" fill="none" group-id="1" node-id="588" stroke="#016efc" stroke-linecap="butt" stroke-width="1.68" target-height="0" target-width="19.46997" target-x="1212.53" target-y="288.5"></path><path d="M 1299.71 315.00 L 1337.64 315.00" fill="none" group-id="1" node-id="590" stroke="#016efc" stroke-linecap="butt" stroke-width="1.68" target-height="0" target-width="37.930054" target-x="1299.71" target-y="315"></path><path d="M 1281.49 304.25 L 1337.64 304.25" fill="none" group-id="1" node-id="592" stroke="#016efc" stroke-linecap="butt" stroke-width="1.68" target-height="0" target-width="56.150024" target-x="1281.49" target-y="304.25"></path><path d="M 1238.00 182.36 C 1233.58 182.40 1229.45 184.54 1226.88 188.13 C 1225.36 187.16 1223.59 186.65 1221.78 186.66 C 1217.85 186.70 1214.37 189.21 1213.11 192.94 C 1211.85 196.66 1213.09 200.77 1216.19 203.19 C 1219.29 205.60 1223.58 205.79 1226.88 203.66 C 1230.56 208.93 1237.44 210.90 1243.34 208.36 C 1249.25 205.82 1252.56 199.48 1251.27 193.18 C 1249.97 186.88 1244.43 182.36 1238.00 182.36 Z" fill="#c7ddff" fill-rule="nonzero" group-id="1" node-id="594" stroke="none" target-height="28.537842" target-width="40.709595" target-x="1211.8523" target-y="182.36"></path><path d="M 1305.32 221.84 C 1307.51 221.82 1309.57 222.88 1310.84 224.67 C 1311.61 224.20 1312.48 223.95 1313.38 223.93 C 1315.93 223.93 1318.00 226.00 1318.00 228.55 C 1318.00 231.10 1315.93 233.17 1313.38 233.17 C 1312.48 233.15 1311.61 232.90 1310.84 232.44 C 1309.54 234.19 1307.50 235.24 1305.32 235.27 C 1302.86 235.36 1300.54 234.11 1299.28 231.99 C 1298.03 229.87 1298.03 227.24 1299.28 225.12 C 1300.54 223.00 1302.86 221.75 1305.32 221.84 Z" fill="#c7ddff" fill-rule="nonzero" group-id="1" node-id="596" stroke="none" target-height="13.619965" target-width="19.973877" target-x="1298.0261" target-y="221.74501"></path><path d="M 257.34 810.18 C 257.34 810.18 260.94 774.90 294.63 759.57 C 306.82 754.01 315.93 743.20 318.47 730.18 C 319.44 725.61 319.41 720.88 318.36 716.32 C 315.21 706.46 314.07 696.08 315.00 685.77 C 315.82 678.19 318.88 671.02 323.80 665.19 C 329.09 658.79 336.30 647.76 337.15 633.59 C 337.53 624.53 334.50 615.65 328.67 608.71 C 319.64 597.63 315.72 583.26 317.86 569.13 C 317.86 569.13 323.80 527.45 295.86 523.88 C 295.86 523.88 264.08 526.29 268.10 574.80 C 268.10 574.80 272.45 598.74 262.70 614.90 C 262.70 614.90 241.62 635.58 254.54 675.27 C 254.54 675.27 264.29 697.42 249.46 713.07 C 249.40 713.07 225.56 738.47 257.34 810.18 Z" fill="#fcbc29" fill-rule="nonzero" group-id="1" node-id="598" stroke="none" target-height="286.3" target-width="111.96777" target-x="225.56" target-y="523.88"></path><path d="M 228.42 831.38 C 228.42 831.38 231.91 777.63 188.90 754.74 C 188.90 754.74 176.40 726.19 184.24 704.74 C 184.24 704.74 196.32 679.12 192.72 649.74 C 192.72 649.74 168.56 615.30 186.89 577.19 C 186.89 577.19 210.41 561.19 211.36 525.12 C 211.36 525.12 212.95 473.05 241.56 474.20 C 241.56 474.20 273.02 483.44 260.20 541.92 C 260.20 541.92 251.51 570.37 258.40 592.00 C 258.40 592.00 275.77 621.39 255.65 667.27 C 255.65 667.27 241.87 692.47 253.95 714.27 C 253.85 714.43 273.13 750.23 228.42 831.38 Z" fill="#ff5925" fill-rule="nonzero" group-id="1" node-id="600" stroke="none" target-height="358.33002" target-width="107.20999" target-x="168.56" target-y="473.05"></path><path d="M 235.62 522.73 L 227.36 854.80" fill="none" group-id="1" node-id="602" stroke="#ffffff" stroke-linecap="butt" stroke-width="1.68" target-height="332.07" target-width="8.2599945" target-x="227.36" target-y="522.73"></path><path d="M 289.76 574.27 L 252.36 851.00" fill="none" group-id="1" node-id="604" stroke="#ffffff" stroke-linecap="butt" stroke-width="1.68" target-height="276.72998" target-width="37.40001" target-x="252.36" target-y="574.27"></path><path d="M 208.40 829.60 C 208.40 829.60 204.40 797.60 173.40 784.35 C 162.20 779.52 153.62 769.86 151.00 758.00 C 149.98 753.87 149.91 749.56 150.79 745.40 C 150.79 745.40 157.68 724.93 150.16 704.25 C 150.16 704.25 123.78 683.35 134.27 652.80 C 145.57 642.15 150.73 626.52 148.00 611.23 C 148.00 611.23 141.64 573.43 167.07 569.55 C 167.07 569.55 196.07 571.02 193.45 615.32 C 193.45 615.32 190.06 637.27 199.28 651.75 C 199.28 651.75 218.98 670.13 207.96 706.56 C 207.96 706.56 199.59 727.03 213.37 740.89 C 213.38 740.89 235.73 763.56 208.40 829.60 Z" fill="#fcbc29" fill-rule="nonzero" group-id="1" node-id="606" stroke="none" target-height="260.05" target-width="111.95" target-x="123.78" target-y="569.55"></path><path d="M 172.16 632.12 L 208.40 829.60" fill="none" group-id="1" node-id="608" stroke="#ffffff" stroke-linecap="butt" stroke-width="1.68" target-height="197.47998" target-width="36.23999" target-x="172.16" target-y="632.12"></path><path d="M 275.56 914.00 L 187.63 914.00 L 178.10 823.30 L 285.10 823.30 Z" fill="#ccd5dd" fill-rule="nonzero" group-id="1" node-id="610" stroke="none" target-height="90.70001" target-width="107" target-x="178.1" target-y="823.3"></path><path d="M 275.56 914.00 L 187.63 914.00 L 178.10 823.30 L 285.10 823.30 Z" fill="#8dbffc" fill-rule="nonzero" group-id="1" node-id="612" stroke="none" target-height="90.70001" target-width="107" target-x="178.1" target-y="823.3"></path><path d="M 190.07 838.42 L 270.90 838.42" fill="none" group-id="1" node-id="614" stroke="#ffffff" stroke-linecap="butt" stroke-width="1.68" target-height="0" target-width="80.82999" target-x="190.07" target-y="838.42"></path><path d="M 190.07 902.35 L 270.90 902.35" fill="none" group-id="1" node-id="616" stroke="#ffffff" stroke-linecap="butt" stroke-width="1.68" target-height="0" target-width="80.82999" target-x="190.07" target-y="902.35"></path></g></svg>