<?xml version="1.0" standalone="no"?><!DOCTYPE svg PUBLIC "-//W3C//DTD SVG 1.1//EN" "http://www.w3.org/Graphics/SVG/1.1/DTD/svg11.dtd"><svg height="90" node-id="1" sillyvg="true" template-height="90" template-width="90" version="1.1" viewBox="0 0 90 90" width="90" xmlns="http://www.w3.org/2000/svg" xmlns:xlink="http://www.w3.org/1999/xlink"><defs node-id="41"><linearGradient gradientUnits="userSpaceOnUse" id="未命名的渐变_18" node-id="5" spreadMethod="pad" x1="45" x2="45" y1="79" y2="90"><stop offset="0" stop-color="#e1eef9"></stop><stop offset="0.28" stop-color="#ddecf8"></stop><stop offset="0.54" stop-color="#d2e5f7"></stop><stop offset="0.8" stop-color="#bfdbf3"></stop><stop offset="1" stop-color="#aacff0"></stop></linearGradient><linearGradient gradientUnits="userSpaceOnUse" id="未命名的渐变_112" node-id="11" spreadMethod="pad" x1="45" x2="45" y1="17" y2="0"><stop offset="0.6" stop-color="#e1eef9"></stop><stop offset="0.81" stop-color="#eff5fa"></stop><stop offset="1" stop-color="#f6f8fb"></stop></linearGradient></defs><path d="M 13.00 0.00 L 77.00 0.00 C 79.21 0.00 81.00 1.79 81.00 4.00 L 81.00 86.00 C 81.00 88.21 79.21 90.00 77.00 90.00 L 13.00 90.00 C 10.79 90.00 9.00 88.21 9.00 86.00 L 9.00 4.00 C 9.00 1.79 10.79 0.00 13.00 0.00 Z" fill="#e1eef9" fill-rule="nonzero" node-id="64" stroke="none" target-height="90" target-width="72" target-x="9" target-y="0"></path><path d="M 13.00 79.00 L 77.00 79.00 C 79.21 79.00 81.00 80.79 81.00 83.00 L 81.00 86.00 C 81.00 88.21 79.21 90.00 77.00 90.00 L 13.00 90.00 C 10.79 90.00 9.00 88.21 9.00 86.00 L 9.00 83.00 C 9.00 80.79 10.79 79.00 13.00 79.00 Z" fill="url(#未命名的渐变_18)" fill-rule="nonzero" node-id="66" stroke="none" target-height="11" target-width="72" target-x="9" target-y="79"></path><path d="M 13.00 0.00 L 77.00 0.00 C 79.21 0.00 81.00 1.79 81.00 4.00 L 81.00 13.00 C 81.00 15.21 79.21 17.00 77.00 17.00 L 13.00 17.00 C 10.79 17.00 9.00 15.21 9.00 13.00 L 9.00 4.00 C 9.00 1.79 10.79 0.00 13.00 0.00 Z" fill="url(#未命名的渐变_112)" fill-rule="nonzero" node-id="68" stroke="none" target-height="17" target-width="72" target-x="9" target-y="0"></path><path d="M 19.30 7.00 L 70.70 7.00 C 72.52 7.00 74.00 8.48 74.00 10.30 L 74.00 79.70 C 74.00 81.52 72.52 83.00 70.70 83.00 L 19.30 83.00 C 17.48 83.00 16.00 81.52 16.00 79.70 L 16.00 10.30 C 16.00 8.48 17.48 7.00 19.30 7.00 Z" fill="#ffffff" fill-rule="nonzero" node-id="70" stroke="none" target-height="76" target-width="58" target-x="16" target-y="7"></path><path d="M 70.70 83.40 L 19.30 83.40 C 17.26 83.40 15.60 81.74 15.60 79.70 L 15.60 10.30 C 15.60 8.26 17.26 6.60 19.30 6.60 L 70.70 6.60 C 72.74 6.60 74.40 8.26 74.40 10.30 L 74.40 79.70 C 74.40 81.74 72.74 83.40 70.70 83.40 Z M 19.30 7.40 C 17.70 7.40 16.40 8.70 16.40 10.30 L 16.40 79.70 C 16.40 81.30 17.70 82.60 19.30 82.60 L 70.70 82.60 C 72.30 82.60 73.60 81.30 73.60 79.70 L 73.60 10.30 C 73.60 8.70 72.30 7.40 70.70 7.40 Z" fill="#d1e1e5" fill-rule="nonzero" node-id="72" stroke="none" target-height="76.8" target-width="58.800003" target-x="15.6" target-y="6.6"></path><path d="M 30.10 57.72 L 33.00 57.72 L 33.00 77.19 L 30.10 77.19 Z" fill="#53bdba" fill-rule="nonzero" node-id="74" stroke="none" target-height="19.470001" target-width="2.8999996" target-x="30.1" target-y="57.72"></path><path d="M 24.93 63.31 L 27.80 63.31 L 27.80 77.31 L 24.93 77.31 Z M 40.78 67.00 L 43.66 67.00 L 43.66 77.27 L 40.78 77.27 Z" fill="#3f69ab" fill-rule="nonzero" node-id="76" stroke="none" target-height="13.999996" target-width="18.73" target-x="24.93" target-y="63.31"></path><path d="M 46.00 60.35 L 48.87 60.35 L 48.87 77.27 L 46.00 77.27 Z" fill="#53bdba" fill-rule="nonzero" node-id="78" stroke="none" target-height="16.919998" target-width="2.869999" target-x="46" target-y="60.35"></path><path d="M 56.55 65.36 L 59.43 65.36 L 59.43 77.27 L 56.55 77.27 Z" fill="#3f69ab" fill-rule="nonzero" node-id="80" stroke="none" target-height="11.909996" target-width="2.880001" target-x="56.55" target-y="65.36"></path><path d="M 61.73 57.15 L 64.60 57.15 L 64.60 77.15 L 61.73 77.15 Z" fill="#53bdba" fill-rule="nonzero" node-id="82" stroke="none" target-height="20" target-width="2.869999" target-x="61.73" target-y="57.15"></path><path d="M 50.72 51.00 L 38.32 42.53 L 26.90 50.15 L 25.09 47.44 L 38.40 38.74 L 50.64 47.11 L 61.32 39.39 L 63.21 41.94 Z" fill="#9ed2f7" fill-rule="nonzero" node-id="84" stroke="none" target-height="12.259998" target-width="38.12" target-x="25.09" target-y="38.74"></path><path d="M 23.70 48.76 C 23.70 50.03 24.73 51.06 26.00 51.06 C 27.27 51.06 28.30 50.03 28.30 48.76 L 28.30 48.76 C 28.30 47.49 27.27 46.46 26.00 46.46 C 24.73 46.46 23.70 47.49 23.70 48.76 Z" fill="#ffffff" fill-rule="nonzero" node-id="86" stroke="none" target-height="4.6000023" target-width="4.5999985" target-x="23.7" target-y="46.46"></path><path d="M 26.00 51.55 C 24.46 51.53 23.22 50.30 23.20 48.76 C 23.27 47.25 24.49 46.05 26.00 46.00 C 27.48 46.09 28.63 47.31 28.63 48.80 C 28.63 50.28 27.48 51.50 26.00 51.59 Z M 26.00 47.00 C 25.30 47.00 24.67 47.41 24.39 48.06 C 24.12 48.71 24.27 49.45 24.76 49.95 C 25.26 50.45 26.00 50.60 26.65 50.33 C 27.30 50.06 27.72 49.43 27.72 48.73 C 27.72 47.78 26.95 47.01 26.00 47.00 Z" fill="#3f69ab" fill-rule="nonzero" node-id="88" stroke="none" target-height="5.59" target-width="5.432741" target-x="23.2" target-y="46"></path><path d="M 36.10 40.71 C 36.10 41.98 37.13 43.01 38.40 43.01 C 39.67 43.01 40.70 41.98 40.70 40.71 L 40.70 40.71 C 40.70 39.44 39.67 38.41 38.40 38.41 C 37.13 38.41 36.10 39.44 36.10 40.71 Z" fill="#ffffff" fill-rule="nonzero" node-id="90" stroke="none" target-height="4.5999985" target-width="4.6000023" target-x="36.1" target-y="38.41"></path><path d="M 38.40 43.50 C 36.87 43.48 35.63 42.24 35.61 40.71 C 35.61 39.17 36.86 37.92 38.40 37.92 C 39.94 37.92 41.19 39.17 41.19 40.71 C 41.19 42.25 39.94 43.50 38.40 43.50 Z M 38.40 38.98 C 37.45 38.99 36.68 39.76 36.68 40.71 C 36.75 41.61 37.50 42.31 38.41 42.31 C 39.31 42.31 40.06 41.61 40.13 40.71 C 40.08 39.78 39.33 39.04 38.40 39.00 Z" fill="#3f69ab" fill-rule="nonzero" node-id="92" stroke="none" target-height="5.580002" target-width="5.579998" target-x="35.61" target-y="37.92"></path><path d="M 48.42 48.76 C 48.42 50.03 49.45 51.06 50.72 51.06 C 51.99 51.06 53.02 50.03 53.02 48.76 L 53.02 48.76 C 53.02 47.49 51.99 46.46 50.72 46.46 C 49.45 46.46 48.42 47.49 48.42 48.76 Z" fill="#ffffff" fill-rule="nonzero" node-id="94" stroke="none" target-height="4.6000023" target-width="4.6000023" target-x="48.42" target-y="46.46"></path><path d="M 50.72 51.55 C 49.19 51.53 47.95 50.29 47.93 48.76 C 47.93 47.22 49.18 45.97 50.72 45.97 C 52.26 45.97 53.51 47.22 53.51 48.76 C 53.52 49.50 53.22 50.21 52.70 50.74 C 52.17 51.26 51.46 51.56 50.72 51.55 Z M 50.72 47.03 C 49.76 47.03 48.99 47.80 48.99 48.76 C 48.99 49.72 49.76 50.49 50.72 50.49 C 51.68 50.49 52.45 49.72 52.45 48.76 C 52.43 47.81 51.67 47.03 50.72 47.00 Z" fill="#3f69ab" fill-rule="nonzero" node-id="96" stroke="none" target-height="5.585373" target-width="5.585373" target-x="47.93" target-y="45.97"></path><path d="M 60.91 40.21 C 60.91 41.48 61.94 42.51 63.21 42.51 C 64.48 42.51 65.51 41.48 65.51 40.21 L 65.51 40.21 C 65.51 38.94 64.48 37.91 63.21 37.91 C 61.94 37.91 60.91 38.94 60.91 40.21 Z" fill="#ffffff" fill-rule="nonzero" node-id="98" stroke="none" target-height="4.5999985" target-width="4.6000023" target-x="60.91" target-y="37.91"></path><path d="M 63.21 43.00 C 61.67 42.98 60.43 41.74 60.41 40.20 C 60.50 38.72 61.72 37.57 63.20 37.57 C 64.69 37.57 65.91 38.72 66.00 40.20 C 65.99 41.74 64.75 42.98 63.21 43.00 Z M 63.21 38.48 C 62.51 38.48 61.87 38.90 61.60 39.54 C 61.33 40.19 61.48 40.94 61.98 41.43 C 62.47 41.93 63.22 42.08 63.87 41.81 C 64.51 41.54 64.93 40.90 64.93 40.20 C 64.86 39.28 64.13 38.55 63.21 38.49 Z" fill="#3f69ab" fill-rule="nonzero" node-id="100" stroke="none" target-height="5.432743" target-width="5.59" target-x="60.41" target-y="37.567257"></path><path d="M 43.82 27.89 L 65.82 27.89 L 65.82 29.70 L 43.82 29.70 Z" fill="#9ed2f7" fill-rule="nonzero" node-id="102" stroke="none" target-height="1.8100014" target-width="22" target-x="43.82" target-y="27.89"></path><path d="M 43.82 22.23 L 53.93 22.23 L 53.93 24.00 L 43.82 24.00 Z" fill="#9ed2f7" fill-rule="nonzero" node-id="104" stroke="none" target-height="1.7700005" target-width="10.110001" target-x="43.82" target-y="22.23"></path><path d="M 43.82 16.56 L 53.93 16.56 L 53.93 18.37 L 43.82 18.37 Z" fill="#9ed2f7" fill-rule="nonzero" node-id="106" stroke="none" target-height="1.8100014" target-width="10.110001" target-x="43.82" target-y="16.56"></path><path d="M 25.61 25.21 C 25.34 24.53 25.20 23.80 25.20 23.07 C 25.17 22.11 25.43 21.17 25.94 20.36 C 26.78 18.88 28.26 17.88 29.94 17.65 L 29.94 14.65 C 27.19 14.92 24.72 16.47 23.29 18.84 C 22.54 20.14 22.14 21.61 22.14 23.11 C 22.16 24.35 22.45 25.58 23.00 26.69 Z" fill="#9ed2f7" fill-rule="nonzero" node-id="108" stroke="none" target-height="12.040001" target-width="7.800001" target-x="22.14" target-y="14.65"></path><path d="M 38.10 18.88 C 36.71 16.47 34.21 14.90 31.44 14.69 L 30.62 14.69 L 30.62 17.69 L 31.44 17.69 C 33.10 17.97 34.56 18.96 35.44 20.40 C 35.92 21.22 36.18 22.16 36.18 23.11 C 36.17 23.84 36.03 24.57 35.77 25.25 L 35.85 25.25 L 38.39 26.73 C 38.92 25.62 39.20 24.42 39.22 23.19 C 39.25 21.68 38.86 20.19 38.10 18.88 Z" fill="#53bdba" fill-rule="nonzero" node-id="110" stroke="none" target-height="12.04" target-width="8.632433" target-x="30.62" target-y="14.69"></path><path d="M 35.55 25.86 C 35.47 25.95 35.38 26.11 35.30 26.19 C 35.22 26.27 35.14 26.44 35.06 26.52 C 34.02 27.87 32.41 28.66 30.70 28.66 C 29.00 28.66 27.39 27.87 26.35 26.52 C 26.27 26.44 26.18 26.27 26.10 26.19 C 26.02 26.11 25.94 25.95 25.86 25.86 L 23.31 27.42 C 23.39 27.53 23.47 27.64 23.56 27.75 C 23.64 27.84 23.72 28.00 23.80 28.08 C 25.40 30.36 28.01 31.71 30.80 31.70 C 33.58 31.68 36.18 30.33 37.80 28.08 C 37.88 28.00 37.96 27.84 38.04 27.75 C 38.13 27.64 38.21 27.53 38.29 27.42 Z" fill="#f2b630" fill-rule="nonzero" node-id="112" stroke="none" target-height="5.854946" target-width="14.980001" target-x="23.31" target-y="25.86"></path></svg>